<?xml version="1.0" encoding="UTF-8" standalone="no"?>
<svg
   xmlns:dc="http://purl.org/dc/elements/1.1/"
   xmlns:cc="http://creativecommons.org/ns#"
   xmlns:rdf="http://www.w3.org/1999/02/22-rdf-syntax-ns#"
   xmlns:svg="http://www.w3.org/2000/svg"
   xmlns="http://www.w3.org/2000/svg"
   xmlns:sodipodi="http://sodipodi.sourceforge.net/DTD/sodipodi-0.dtd"
   xmlns:inkscape="http://www.inkscape.org/namespaces/inkscape"
   inkscape:version="1.0 (4035a4fb49, 2020-05-01)"
   sodipodi:docname="yellow 1.svg"
   id="svg1052"
   version="1.1"
   viewBox="0 0 50.370563 13.020074"
   height="13.020075mm"
   width="50.370564mm">
  <defs
     id="defs1046" />
  <sodipodi:namedview
     inkscape:snap-page="false"
     fit-margin-bottom="0"
     fit-margin-right="0"
     fit-margin-left="0"
     fit-margin-top="0"
     inkscape:window-maximized="1"
     inkscape:window-y="-4"
     inkscape:window-x="-4"
     inkscape:window-height="996"
     inkscape:window-width="1920"
     showgrid="false"
     inkscape:document-rotation="0"
     inkscape:current-layer="layer1"
     inkscape:document-units="mm"
     inkscape:cy="46.293059"
     inkscape:cx="120.68141"
     inkscape:zoom="5.6"
     inkscape:pageshadow="2"
     inkscape:pageopacity="0.0"
     borderopacity="1.0"
     bordercolor="#666666"
     pagecolor="#ffffff"
     id="base" />
  <metadata
     id="metadata1049">
    <rdf:RDF>
      <cc:Work
         rdf:about="">
        <dc:format>image/svg+xml</dc:format>
        <dc:type
           rdf:resource="http://purl.org/dc/dcmitype/StillImage" />
        <dc:title></dc:title>
        <dc:title></dc:title>
      </cc:Work>
    </rdf:RDF>
  </metadata>
  <g
     transform="translate(71.097948,-124.31058)"
     id="layer1"
     inkscape:groupmode="layer"
     inkscape:label="Vrstva 1">
    <g
       transform="translate(-18.028932,-7.0894207)"
       id="g1460">
      <path
         id="path1478"
         d="m -52.70165,144.07483 c -0.450104,-0.4501 -0.450104,-11.87948 0,-12.32958 0.460326,-0.46033 49.1755046,-0.46033 49.635832,0 0.4501039,0.4501 0.4501039,11.87948 0,12.32958 -0.4603274,0.46033 -49.175506,0.46033 -49.635832,0 z"
         style="fill:#e3d5a3;stroke-width:0.264583" />
      <path
         id="path1476"
         d="m -52.603376,143.97656 c -0.620853,-0.62085 -0.620853,-11.51218 0,-12.13304 0.371941,-0.37194 2.977994,-0.41577 24.719642,-0.41577 21.741648,0 24.3477012,0.0438 24.7196418,0.41577 0.6208527,0.62086 0.6208527,11.51219 0,12.13304 -0.3719406,0.37194 -2.9779938,0.41577 -24.7196418,0.41577 -21.741648,0 -24.347701,-0.0438 -24.719642,-0.41577 z"
         style="fill:#fed847;stroke-width:0.264583" />
      <path
         id="path1474"
         d="m -52.603376,143.97656 c -0.620853,-0.62085 -0.620853,-11.51218 0,-12.13304 0.371941,-0.37194 2.977994,-0.41577 24.719642,-0.41577 21.741648,0 24.3477012,0.0438 24.7196418,0.41577 0.6208527,0.62086 0.6208527,11.51219 0,12.13304 -0.3719406,0.37194 -2.9779938,0.41577 -24.7196418,0.41577 -21.741648,0 -24.347701,-0.0438 -24.719642,-0.41577 z m 49.0083914,-1.48923 c 0.2238427,-0.22384 0.3174999,-1.7477 0.3174999,-5.16592 v -4.84842 l -0.6786826,-0.25804 c -0.9209088,-0.35013 -46.9342247,-0.35013 -47.8551337,0 l -0.678682,0.25804 v 4.84842 c 0,3.41822 0.09366,4.94208 0.3175,5.16592 0.460255,0.46026 48.1172424,0.46026 48.5774984,0 z m -48.1012484,-2.8575 v -2.38125 h 23.812499 23.8124994 v 2.38125 2.38125 H -27.883734 -51.696233 Z"
         style="fill:#dec460;stroke-width:0.264583" />
      <path
         id="path1472"
         d="m -52.603376,143.97656 c -0.352037,-0.35204 -0.415774,-1.28261 -0.415774,-6.07041 0,-5.54341 0.01157,-5.66275 0.588038,-6.06652 0.521711,-0.36542 3.290524,-0.41188 24.547378,-0.41188 21.2568546,0 24.0256662,0.0465 24.5473769,0.41188 0.5764715,0.40377 0.5880391,0.52311 0.5880391,6.06652 0,4.7878 -0.063736,5.71837 -0.4157742,6.07041 -0.3719406,0.37194 -2.9779938,0.41577 -24.7196418,0.41577 -21.741648,0 -24.347701,-0.0438 -24.719642,-0.41577 z m 49.0083914,-1.48923 c 0.2238427,-0.22384 0.3174999,-1.7477 0.3174999,-5.16592 v -4.84842 l -0.6786826,-0.25804 c -0.9209088,-0.35013 -46.9342247,-0.35013 -47.8551337,0 l -0.678682,0.25804 v 4.84842 c 0,3.41822 0.09366,4.94208 0.3175,5.16592 0.460255,0.46026 48.1172424,0.46026 48.5774984,0 z m -48.1012484,-2.8575 v -2.38125 h 23.812499 23.8124994 v 2.38125 2.38125 H -27.883734 -51.696233 Z"
         style="fill:#fdd023;stroke-width:0.264583" />
      <path
         id="path1470"
         d="m -52.603376,143.97656 c -0.352037,-0.35204 -0.415774,-1.28261 -0.415774,-6.07041 0,-5.54341 0.01157,-5.66275 0.588038,-6.06652 0.521711,-0.36542 3.290524,-0.41188 24.547378,-0.41188 21.2568546,0 24.0256662,0.0465 24.5473769,0.41188 0.5764715,0.40377 0.5880391,0.52311 0.5880391,6.06652 0,4.7878 -0.063736,5.71837 -0.4157742,6.07041 -0.3719406,0.37194 -2.9779938,0.41577 -24.7196418,0.41577 -21.741648,0 -24.347701,-0.0438 -24.719642,-0.41577 z m 49.1935997,-6.59569 v -5.29166 H -27.883734 -52.357692 l -0.0722,5.01893 c -0.03971,2.76042 -0.01344,5.17205 0.05837,5.3592 0.105359,0.27456 4.844542,0.32721 24.546155,0.27273 l 24.4155867,-0.0675 z m -48.2864567,2.38125 v -2.24895 h 23.812499 23.8124994 v 2.24895 2.24896 H -27.883734 -51.696233 Z"
         style="fill:#cdb34c;stroke-width:0.264583" />
      <path
         id="path1468"
         d="m -52.607272,143.80429 c -0.579918,-0.82794 -0.61125,-10.94441 -0.03633,-11.73066 0.367047,-0.50196 0.927422,-0.51359 24.759869,-0.51359 23.8324463,0 24.3928232,0.0116 24.7598691,0.51359 0.5749184,0.78625 0.5435864,10.90272 -0.03633,11.73066 l -0.4118795,0.58804 h -24.3116596 -24.31166 z m 49.1974957,-6.42342 v -5.29166 H -27.883734 -52.357692 l -0.0722,5.01893 c -0.03971,2.76042 -0.01344,5.17205 0.05837,5.3592 0.105359,0.27456 4.844542,0.32721 24.546155,0.27273 l 24.4155867,-0.0675 z m -48.2864567,2.38125 v -2.24895 h 23.812499 23.8124994 v 2.24895 2.24896 H -27.883734 -51.696233 Z"
         style="fill:#fecb00;stroke-width:0.264583" />
      <path
         id="path1466"
         d="m -52.607272,143.80429 c -0.579918,-0.82794 -0.61125,-10.94441 -0.03633,-11.73066 0.367047,-0.50196 0.927422,-0.51359 24.759869,-0.51359 23.8324463,0 24.3928232,0.0116 24.7598691,0.51359 0.5749184,0.78625 0.5435864,10.90272 -0.03633,11.73066 l -0.4118795,0.58804 h -24.3116596 -24.31166 z m 49.1974957,-6.42342 v -5.29166 H -27.883734 -52.357692 l -0.0722,5.01893 c -0.03971,2.76042 -0.01344,5.17205 0.05837,5.3592 0.105359,0.27456 4.844542,0.32721 24.546155,0.27273 l 24.4155867,-0.0675 z"
         style="fill:#cca300;stroke-width:0.264583" />
      <path
         id="path1464"
         d="m -52.607272,143.80429 c -0.226533,-0.32342 -0.402478,-0.88896 -0.39099,-1.25677 0.01233,-0.39463 0.07902,-0.50606 0.162728,-0.27185 0.383586,1.07329 0.03083,1.05833 24.9518,1.05833 24.9209686,0 24.5682128,0.015 24.9518005,-1.05833 0.083703,-0.23421 0.1503997,-0.12278 0.1627266,0.27185 0.011483,0.36781 -0.164457,0.93335 -0.390988,1.25677 l -0.4118795,0.58804 h -24.3116596 -24.31166 z"
         style="fill:#c49d00;stroke-width:0.264583" />
      <path
         id="path1462"
         d="m -52.607272,143.80429 c -0.564403,-0.80579 -0.561564,-1.45152 0.0039,-0.88606 0.371941,0.37194 2.977994,0.41577 24.719642,0.41577 21.741648,0 24.3477012,-0.0438 24.7196418,-0.41577 0.5654596,-0.56546 0.5682986,0.0803 0.00389,0.88606 l -0.4118716,0.58804 h -24.3116592 -24.31166 z"
         style="fill:#a78500;stroke-width:0.264583" />
    </g>
  </g>
</svg>
