<?xml version="1.0" encoding="UTF-8" standalone="no"?>
<svg
   xmlns:dc="http://purl.org/dc/elements/1.1/"
   xmlns:cc="http://creativecommons.org/ns#"
   xmlns:rdf="http://www.w3.org/1999/02/22-rdf-syntax-ns#"
   xmlns:svg="http://www.w3.org/2000/svg"
   xmlns="http://www.w3.org/2000/svg"
   xmlns:sodipodi="http://sodipodi.sourceforge.net/DTD/sodipodi-0.dtd"
   xmlns:inkscape="http://www.inkscape.org/namespaces/inkscape"
   inkscape:version="1.0 (4035a4fb49, 2020-05-01)"
   sodipodi:docname="yellow  2.svg"
   id="svg1052"
   version="1.1"
   viewBox="0 0 50.369842 11.961744"
   height="11.961745mm"
   width="50.369843mm">
  <defs
     id="defs1046" />
  <sodipodi:namedview
     inkscape:snap-page="false"
     fit-margin-bottom="0"
     fit-margin-right="0"
     fit-margin-left="0"
     fit-margin-top="0"
     inkscape:window-maximized="0"
     inkscape:window-y="276"
     inkscape:window-x="653"
     inkscape:window-height="542"
     inkscape:window-width="901"
     showgrid="false"
     inkscape:document-rotation="0"
     inkscape:current-layer="layer1"
     inkscape:document-units="mm"
     inkscape:cy="0.58216131"
     inkscape:cx="172.56285"
     inkscape:zoom="5.6"
     inkscape:pageshadow="2"
     inkscape:pageopacity="0.0"
     borderopacity="1.0"
     bordercolor="#666666"
     pagecolor="#ffffff"
     id="base" />
  <metadata
     id="metadata1049">
    <rdf:RDF>
      <cc:Work
         rdf:about="">
        <dc:format>image/svg+xml</dc:format>
        <dc:type
           rdf:resource="http://purl.org/dc/dcmitype/StillImage" />
        <dc:title></dc:title>
        <dc:title></dc:title>
      </cc:Work>
    </rdf:RDF>
  </metadata>
  <g
     transform="translate(76.957539,-137.62415)"
     id="layer1"
     inkscape:groupmode="layer"
     inkscape:label="Vrstva 1">
    <g
       transform="translate(-2.2079215,12.561683)"
       id="g1494">
      <path
         id="path1512"
         d="m -74.382611,136.67896 c -0.448762,-0.44876 -0.448762,-10.82249 0,-11.27125 0.460326,-0.46033 49.175505,-0.46033 49.635832,0 0.448762,0.44876 0.448762,10.82249 0,11.27125 -0.460327,0.46033 -49.175506,0.46033 -49.635832,0 z"
         style="fill:#f1e7c0;stroke-width:0.264583" />
      <path
         id="path1510"
         d="m -74.426219,136.48469 c -0.161982,-0.30267 -0.273892,-2.62315 -0.273892,-5.67924 0,-4.83812 0.03262,-5.18491 0.511773,-5.44135 0.710571,-0.38028 48.536716,-0.38028 49.247286,0 0.479158,0.25644 0.511773,0.60323 0.511773,5.44135 0,3.05609 -0.111911,5.37657 -0.273891,5.67924 -0.267775,0.50034 -0.823243,0.51177 -24.861525,0.51177 -24.038281,0 -24.593751,-0.0114 -24.861524,-0.51177 z"
         style="fill:#e9d99c;stroke-width:0.264583" />
      <path
         id="path1508"
         d="m -74.284337,136.58069 c -0.619016,-0.61902 -0.619016,-10.45569 0,-11.07471 0.371941,-0.37194 2.977994,-0.41577 24.719642,-0.41577 21.741648,0 24.347701,0.0438 24.719642,0.41577 0.619016,0.61902 0.619016,10.45569 0,11.07471 -0.371941,0.37194 -2.977994,0.41577 -24.719642,0.41577 -21.741648,0 -24.347701,-0.0438 -24.719642,-0.41577 z"
         style="fill:#fdd746;stroke-width:0.264583" />
      <path
         id="path1506"
         d="m -74.284337,136.58069 c -0.619016,-0.61902 -0.619016,-10.45569 0,-11.07471 0.371941,-0.37194 2.977994,-0.41577 24.719642,-0.41577 21.741648,0 24.347701,0.0438 24.719642,0.41577 0.619016,0.61902 0.619016,10.45569 0,11.07471 -0.371941,0.37194 -2.977994,0.41577 -24.719642,0.41577 -21.741648,0 -24.347701,-0.0438 -24.719642,-0.41577 z m 49.008391,-0.4309 c 0.223843,-0.22384 0.3175,-1.7477 0.3175,-5.16592 v -4.84842 l -0.678682,-0.25804 c -0.920909,-0.35013 -46.934225,-0.35013 -47.855134,0 l -0.678682,0.25804 v 4.84842 c 0,3.41822 0.09366,4.94208 0.3175,5.16592 0.460255,0.46026 48.117242,0.46026 48.577498,0 z m -48.101248,-2.8575 v -2.38125 h 23.812499 23.812499 v 2.38125 2.38125 h -23.812499 -23.812499 z"
         style="fill:#dec460;stroke-width:0.264583" />
      <path
         id="path1504"
         d="m -74.288233,136.40842 c -0.337174,-0.48138 -0.411878,-1.48642 -0.411878,-5.54125 0,-4.81856 0.01598,-4.9644 0.588038,-5.36508 0.521711,-0.36542 3.290524,-0.41188 24.547378,-0.41188 21.256855,0 24.025666,0.0465 24.547377,0.41188 0.573103,0.40141 0.588039,0.5415 0.588039,5.51524 0,4.60804 -0.04696,5.14587 -0.483854,5.54125 -0.44282,0.40074 -2.539553,0.43788 -24.723538,0.43788 h -24.239684 z m 49.012287,-0.25863 c 0.223843,-0.22384 0.3175,-1.7477 0.3175,-5.16592 v -4.84842 l -0.678682,-0.25804 c -0.920909,-0.35013 -46.934225,-0.35013 -47.855134,0 l -0.678682,0.25804 v 4.84842 c 0,3.41822 0.09366,4.94208 0.3175,5.16592 0.460255,0.46026 48.117242,0.46026 48.577498,0 z m -48.101248,-2.8575 v -2.38125 h 23.812499 23.812499 v 2.38125 2.38125 h -23.812499 -23.812499 z"
         style="fill:#fdd023;stroke-width:0.264583" />
      <path
         id="path1502"
         d="m -74.288233,136.40842 c -0.337174,-0.48138 -0.411878,-1.48642 -0.411878,-5.54125 0,-4.81856 0.01598,-4.9644 0.588038,-5.36508 0.521711,-0.36542 3.290524,-0.41188 24.547378,-0.41188 21.256855,0 24.025666,0.0465 24.547377,0.41188 0.573103,0.40141 0.588039,0.5415 0.588039,5.51524 0,4.60804 -0.04696,5.14587 -0.483854,5.54125 -0.44282,0.40074 -2.539553,0.43788 -24.723538,0.43788 h -24.239684 z m 49.169188,-0.35964 c 0.08833,-0.23018 0.160599,-2.5987 0.160599,-5.26336 0,-4.17379 -0.05797,-4.86709 -0.418515,-5.00544 -0.546952,-0.20989 -47.828517,-0.20989 -48.375469,0 -0.360546,0.13835 -0.418514,0.83165 -0.418514,5.00544 0,2.66466 0.07227,5.03318 0.160599,5.26336 0.144831,0.37742 2.544935,0.41851 24.44565,0.41851 21.900716,0 24.30082,-0.0411 24.44565,-0.41851 z m -48.258149,-2.6242 v -2.24895 h 23.812499 23.812499 v 2.24895 2.24896 h -23.812499 -23.812499 z"
         style="fill:#d6ba43;stroke-width:0.264583" />
      <path
         id="path1500"
         d="m -74.288233,136.40842 c -0.630369,-0.89998 -0.608088,-10.29683 0.02566,-10.82279 0.652014,-0.54113 48.743738,-0.54113 49.395753,0 0.633749,0.52596 0.656029,9.92281 0.02567,10.82279 l -0.411882,0.58804 h -24.31166 -24.31166 z m 49.169188,-0.35964 c 0.08833,-0.23018 0.160599,-2.5987 0.160599,-5.26336 0,-4.17379 -0.05797,-4.86709 -0.418515,-5.00544 -0.546952,-0.20989 -47.828517,-0.20989 -48.375469,0 -0.360546,0.13835 -0.418514,0.83165 -0.418514,5.00544 0,2.66466 0.07227,5.03318 0.160599,5.26336 0.144831,0.37742 2.544935,0.41851 24.44565,0.41851 21.900716,0 24.30082,-0.0411 24.44565,-0.41851 z m -48.258149,-2.6242 v -2.24895 h 23.812499 23.812499 v 2.24895 2.24896 h -23.812499 -23.812499 z"
         style="fill:#fecb00;stroke-width:0.264583" />
      <path
         id="path1498"
         d="m -74.288233,136.40842 c -0.630369,-0.89998 -0.608088,-10.29683 0.02566,-10.82279 0.652014,-0.54113 48.743738,-0.54113 49.395753,0 0.633749,0.52596 0.656029,9.92281 0.02567,10.82279 l -0.411882,0.58804 h -24.31166 -24.31166 z m 49.169188,-0.35964 c 0.08833,-0.23018 0.160599,-2.5987 0.160599,-5.26336 0,-4.17379 -0.05797,-4.86709 -0.418515,-5.00544 -0.546952,-0.20989 -47.828517,-0.20989 -48.375469,0 -0.360546,0.13835 -0.418514,0.83165 -0.418514,5.00544 0,2.66466 0.07227,5.03318 0.160599,5.26336 0.144831,0.37742 2.544935,0.41851 24.44565,0.41851 21.900716,0 24.30082,-0.0411 24.44565,-0.41851 z"
         style="fill:#d1af26;stroke-width:0.264583" />
      <path
         id="path1496"
         d="m -74.170944,136.46729 c -0.490631,-0.49063 -0.529167,-0.88194 -0.529167,-5.37339 0,-3.76608 0.08358,-4.95852 0.375547,-5.35781 0.367047,-0.50196 0.927422,-0.51359 24.759869,-0.51359 24.078152,0 24.389212,0.007 24.773667,0.52917 0.317452,0.43145 0.374584,1.44926 0.309401,5.51191 -0.07341,4.57549 -0.121922,5.01341 -0.593534,5.35782 -0.434316,0.31717 -4.222134,0.37506 -24.540104,0.37506 -23.673735,0 -24.034282,-0.008 -24.555679,-0.52917 z m 49.080207,-5.42395 v -5.29167 h -24.473958 -24.473958 l -0.0722,5.01893 c -0.03971,2.76042 -0.01344,5.17206 0.05837,5.3592 0.105359,0.27456 4.844542,0.32721 24.546155,0.27273 l 24.415587,-0.0675 z"
         style="fill:#cca300;stroke-width:0.264583" />
    </g>
  </g>
</svg>
