<?xml version="1.0" encoding="UTF-8" standalone="no"?>
<svg
   xmlns:dc="http://purl.org/dc/elements/1.1/"
   xmlns:cc="http://creativecommons.org/ns#"
   xmlns:rdf="http://www.w3.org/1999/02/22-rdf-syntax-ns#"
   xmlns:svg="http://www.w3.org/2000/svg"
   xmlns="http://www.w3.org/2000/svg"
   xmlns:sodipodi="http://sodipodi.sourceforge.net/DTD/sodipodi-0.dtd"
   xmlns:inkscape="http://www.inkscape.org/namespaces/inkscape"
   inkscape:version="1.0 (4035a4fb49, 2020-05-01)"
   sodipodi:docname="yellow 3.svg"
   id="svg1052"
   version="1.1"
   viewBox="0 0 50.370563 13.020073"
   height="13.020075mm"
   width="50.370564mm">
  <defs
     id="defs1046" />
  <sodipodi:namedview
     inkscape:snap-page="false"
     fit-margin-bottom="0"
     fit-margin-right="0"
     fit-margin-left="0"
     fit-margin-top="0"
     inkscape:window-maximized="1"
     inkscape:window-y="-4"
     inkscape:window-x="-4"
     inkscape:window-height="996"
     inkscape:window-width="1920"
     showgrid="false"
     inkscape:document-rotation="0"
     inkscape:current-layer="layer1"
     inkscape:document-units="mm"
     inkscape:cy="-8.3326137"
     inkscape:cx="83.071037"
     inkscape:zoom="5.6"
     inkscape:pageshadow="2"
     inkscape:pageopacity="0.0"
     borderopacity="1.0"
     bordercolor="#666666"
     pagecolor="#ffffff"
     id="base" />
  <metadata
     id="metadata1049">
    <rdf:RDF>
      <cc:Work
         rdf:about="">
        <dc:format>image/svg+xml</dc:format>
        <dc:type
           rdf:resource="http://purl.org/dc/dcmitype/StillImage" />
        <dc:title></dc:title>
        <dc:title></dc:title>
      </cc:Work>
    </rdf:RDF>
  </metadata>
  <g
     transform="translate(62.108293,-142.42181)"
     id="layer1"
     inkscape:groupmode="layer"
     inkscape:label="Vrstva 1">
    <g
       transform="translate(-0.26183431,9.3069788)"
       id="g1528">
      <path
         id="path1546"
         d="m -61.479093,145.78966 c -0.450104,-0.4501 -0.450104,-11.87948 0,-12.32958 0.460326,-0.46033 49.175505,-0.46033 49.635832,0 0.450104,0.4501 0.450104,11.87948 0,12.32958 -0.460327,0.46033 -49.175506,0.46033 -49.635832,0 z"
         style="fill:#e3d5a3;stroke-width:0.264583" />
      <path
         id="path1544"
         d="m -61.380819,145.69139 c -0.620853,-0.62085 -0.620853,-11.51218 0,-12.13304 0.371941,-0.37194 2.977994,-0.41577 24.719642,-0.41577 21.741648,0 24.347701,0.0438 24.719642,0.41577 0.620853,0.62086 0.620853,11.51219 0,12.13304 -0.371941,0.37194 -2.977994,0.41577 -24.719642,0.41577 -21.741648,0 -24.347701,-0.0438 -24.719642,-0.41577 z"
         style="fill:#fed746;stroke-width:0.264583" />
      <path
         id="path1542"
         d="m -61.380819,145.69139 c -0.620853,-0.62085 -0.620853,-11.51218 0,-12.13304 0.371941,-0.37194 2.977994,-0.41577 24.719642,-0.41577 21.741648,0 24.347701,0.0438 24.719642,0.41577 0.620853,0.62086 0.620853,11.51219 0,12.13304 -0.371941,0.37194 -2.977994,0.41577 -24.719642,0.41577 -21.741648,0 -24.347701,-0.0438 -24.719642,-0.41577 z m 49.008391,-1.48923 c 0.223843,-0.22384 0.3175,-1.7477 0.3175,-5.16592 v -4.84842 l -0.678682,-0.25804 c -0.920909,-0.35013 -46.934225,-0.35013 -47.855134,0 l -0.678682,0.25804 v 4.84842 c 0,3.41822 0.09366,4.94208 0.3175,5.16592 0.460255,0.46026 48.117242,0.46026 48.577498,0 z M -60.73826,139.0957 v -4.89479 h 24.077083 24.077083 v 4.89479 4.8948 H -36.661177 -60.73826 Z"
         style="fill:#dec460;stroke-width:0.264583" />
      <path
         id="path1540"
         d="m -61.380819,145.69139 c -0.352037,-0.35204 -0.415774,-1.28261 -0.415774,-6.07041 0,-5.54341 0.01157,-5.66275 0.588038,-6.06652 0.521711,-0.36542 3.290524,-0.41188 24.547378,-0.41188 21.256855,0 24.025666,0.0465 24.547377,0.41188 0.576471,0.40377 0.588039,0.52311 0.588039,6.06652 0,4.7878 -0.06374,5.71837 -0.415774,6.07041 -0.371941,0.37194 -2.977994,0.41577 -24.719642,0.41577 -21.741648,0 -24.347701,-0.0438 -24.719642,-0.41577 z m 49.008391,-1.48923 c 0.223843,-0.22384 0.3175,-1.7477 0.3175,-5.16592 v -4.84842 l -0.678682,-0.25804 c -0.920909,-0.35013 -46.934225,-0.35013 -47.855134,0 l -0.678682,0.25804 v 4.84842 c 0,3.41822 0.09366,4.94208 0.3175,5.16592 0.460255,0.46026 48.117242,0.46026 48.577498,0 z M -60.73826,139.0957 v -4.89479 h 24.077083 24.077083 v 4.89479 4.8948 H -36.661177 -60.73826 Z"
         style="fill:#eec731;stroke-width:0.264583" />
      <path
         id="path1538"
         d="m -61.380819,145.69139 c -0.352037,-0.35204 -0.415774,-1.28261 -0.415774,-6.07041 0,-5.54341 0.01157,-5.66275 0.588038,-6.06652 0.521711,-0.36542 3.290524,-0.41188 24.547378,-0.41188 21.256855,0 24.025666,0.0465 24.547377,0.41188 0.576471,0.40377 0.588039,0.52311 0.588039,6.06652 0,4.7878 -0.06374,5.71837 -0.415774,6.07041 -0.371941,0.37194 -2.977994,0.41577 -24.719642,0.41577 -21.741648,0 -24.347701,-0.0438 -24.719642,-0.41577 z m 49.1936,-6.59569 v -5.29166 h -24.473958 -24.473958 l -0.0722,5.01893 c -0.03971,2.76042 -0.01344,5.17205 0.05837,5.3592 0.105359,0.27456 4.844542,0.32721 24.546155,0.27273 l 24.415587,-0.0675 z m -48.373253,4.71981 c -0.09778,-0.0978 -0.177788,-2.30107 -0.177788,-4.89619 v -4.71841 h 24.083052 24.083052 l -0.07212,4.82865 -0.07212,4.82864 -23.833149,0.0675 c -13.108232,0.0371 -23.913154,-0.0125 -24.010937,-0.11024 z"
         style="fill:#cdb34c;stroke-width:0.264583" />
      <path
         id="path1536"
         d="m -61.384715,145.51912 c -0.579918,-0.82794 -0.61125,-10.94441 -0.03633,-11.73066 0.367047,-0.50196 0.927422,-0.51359 24.759869,-0.51359 23.832446,0 24.392823,0.0116 24.759869,0.51359 0.574918,0.78625 0.543587,10.90272 -0.03633,11.73066 l -0.411879,0.58804 h -24.31166 -24.31166 z m 49.197496,-6.42342 v -5.29166 h -24.473958 -24.473958 l -0.0722,5.01893 c -0.03971,2.76042 -0.01344,5.17205 0.05837,5.3592 0.105359,0.27456 4.844542,0.32721 24.546155,0.27273 l 24.415587,-0.0675 z m -48.373253,4.71981 c -0.09778,-0.0978 -0.177788,-2.30107 -0.177788,-4.89619 v -4.71841 h 24.083052 24.083052 l -0.07212,4.82865 -0.07212,4.82864 -23.833149,0.0675 c -13.108232,0.0371 -23.913154,-0.0125 -24.010937,-0.11024 z"
         style="fill:#fecb00;stroke-width:0.264583" />
      <path
         id="path1534"
         d="m -61.384715,145.51912 c -0.579918,-0.82794 -0.61125,-10.94441 -0.03633,-11.73066 0.367047,-0.50196 0.927422,-0.51359 24.759869,-0.51359 23.832446,0 24.392823,0.0116 24.759869,0.51359 0.574918,0.78625 0.543587,10.90272 -0.03633,11.73066 l -0.411879,0.58804 h -24.31166 -24.31166 z m 49.197496,-6.42342 v -5.29166 h -24.473958 -24.473958 l -0.0722,5.01893 c -0.03971,2.76042 -0.01344,5.17205 0.05837,5.3592 0.105359,0.27456 4.844542,0.32721 24.546155,0.27273 l 24.415587,-0.0675 z"
         style="fill:#cca300;stroke-width:0.264583" />
      <path
         id="path1532"
         d="m -61.384715,145.51912 c -0.226533,-0.32342 -0.402478,-0.88896 -0.39099,-1.25677 0.01233,-0.39463 0.07902,-0.50606 0.162728,-0.27185 0.383586,1.07329 0.03083,1.05833 24.9518,1.05833 24.920969,0 24.568213,0.015 24.9518,-1.05833 0.0837,-0.23421 0.1504,-0.12278 0.162727,0.27185 0.01148,0.36781 -0.164457,0.93335 -0.390988,1.25677 l -0.411879,0.58804 h -24.31166 -24.31166 z"
         style="fill:#c49d00;stroke-width:0.264583" />
      <path
         id="path1530"
         d="m -61.384715,145.51912 c -0.564403,-0.80579 -0.561564,-1.45152 0.0039,-0.88606 0.371941,0.37194 2.977994,0.41577 24.719642,0.41577 21.741648,0 24.347701,-0.0438 24.719642,-0.41577 0.565459,-0.56546 0.568298,0.0803 0.0039,0.88606 l -0.411871,0.58804 h -24.31166 -24.31166 z"
         style="fill:#a78500;stroke-width:0.264583" />
    </g>
  </g>
</svg>
