<?xml version="1.0" encoding="UTF-8" standalone="no"?>
<svg
   xmlns:dc="http://purl.org/dc/elements/1.1/"
   xmlns:cc="http://creativecommons.org/ns#"
   xmlns:rdf="http://www.w3.org/1999/02/22-rdf-syntax-ns#"
   xmlns:svg="http://www.w3.org/2000/svg"
   xmlns="http://www.w3.org/2000/svg"
   xmlns:sodipodi="http://sodipodi.sourceforge.net/DTD/sodipodi-0.dtd"
   xmlns:inkscape="http://www.inkscape.org/namespaces/inkscape"
   inkscape:version="1.0 (4035a4fb49, 2020-05-01)"
   sodipodi:docname="yellow 5.svg"
   id="svg1052"
   version="1.1"
   viewBox="0 0 50.370563 12.964578"
   height="12.96458mm"
   width="50.370564mm">
  <defs
     id="defs1046" />
  <sodipodi:namedview
     inkscape:snap-page="false"
     fit-margin-bottom="0"
     fit-margin-right="0"
     fit-margin-left="0"
     fit-margin-top="0"
     inkscape:window-maximized="1"
     inkscape:window-y="-4"
     inkscape:window-x="-4"
     inkscape:window-height="996"
     inkscape:window-width="1920"
     showgrid="false"
     inkscape:document-rotation="0"
     inkscape:current-layer="layer1"
     inkscape:document-units="mm"
     inkscape:cy="-18.216279"
     inkscape:cx="108.98736"
     inkscape:zoom="5.6"
     inkscape:pageshadow="2"
     inkscape:pageopacity="0.0"
     borderopacity="1.0"
     bordercolor="#666666"
     pagecolor="#ffffff"
     id="base" />
  <metadata
     id="metadata1049">
    <rdf:RDF>
      <cc:Work
         rdf:about="">
        <dc:format>image/svg+xml</dc:format>
        <dc:type
           rdf:resource="http://purl.org/dc/dcmitype/StillImage" />
        <dc:title></dc:title>
        <dc:title></dc:title>
      </cc:Work>
    </rdf:RDF>
  </metadata>
  <g
     transform="translate(68.958102,-145.05571)"
     id="layer1"
     inkscape:groupmode="layer"
     inkscape:label="Vrstva 1">
    <g
       transform="translate(15.19737,5.9004526)"
       id="g1596">
      <path
         id="path1612"
         d="m -83.689832,151.70407 c -0.620853,-0.62085 -0.620853,-11.51218 0,-12.13304 0.371941,-0.37194 2.977994,-0.41577 24.719642,-0.41577 21.741648,0 24.347701,0.0438 24.719642,0.41577 0.620853,0.62086 0.620853,11.51219 0,12.13304 -0.371941,0.37194 -2.977994,0.41577 -24.719642,0.41577 -21.741648,0 -24.347701,-0.0438 -24.719642,-0.41577 z"
         style="fill:#fed744;stroke-width:0.264583" />
      <path
         id="path1610"
         d="m -83.693728,151.5318 c -0.340611,-0.48628 -0.411878,-1.53665 -0.411878,-6.07041 0,-5.36539 0.01255,-5.49116 0.588038,-5.89425 0.521711,-0.36542 3.290524,-0.41188 24.547378,-0.41188 21.256855,0 24.025666,0.0465 24.547377,0.41188 0.575492,0.40309 0.588039,0.52886 0.588039,5.89425 0,4.53376 -0.07127,5.58413 -0.411877,6.07041 l -0.411879,0.58804 h -24.31166 -24.31166 z m 49.055896,-1.51123 c 0.159022,-0.29714 0.273891,-2.46367 0.273891,-5.16592 v -4.65415 l -0.678682,-0.25804 c -0.920909,-0.35013 -46.934225,-0.35013 -47.855134,0 l -0.678682,0.25804 v 4.65415 c 0,2.70225 0.114867,4.86878 0.273892,5.16592 0.267707,0.50021 0.817248,0.51177 24.332357,0.51177 23.51511,0 24.06465,-0.0116 24.332358,-0.51177 z m -48.409441,-4.38302 v -4.36562 h 24.077083 24.077083 v 4.36562 4.36563 H -58.97019 -83.047273 Z"
         style="fill:#fdd436;stroke-width:0.264583" />
      <path
         id="path1608"
         d="m -83.693728,151.5318 c -0.340508,-0.48614 -0.411878,-1.535 -0.411878,-6.05301 0,-4.76073 0.05638,-5.51178 0.43754,-5.82811 0.652014,-0.54113 48.743738,-0.54113 49.395753,0 0.381154,0.31633 0.437539,1.06738 0.437539,5.82811 0,4.51801 -0.07137,5.56687 -0.411877,6.05301 l -0.411879,0.58804 h -24.31166 -24.31166 z m 49.012287,-1.31696 c 0.447122,-0.44712 0.447122,-9.76579 0,-10.21291 -0.460256,-0.46026 -48.117243,-0.46026 -48.577498,0 -0.447122,0.44712 -0.447122,9.76579 0,10.21291 0.460255,0.46026 48.117242,0.46026 48.577498,0 z m -48.365832,-3.38666 v -3.175 h 24.077083 24.077083 v 3.175 3.175 H -58.97019 -83.047273 Z"
         style="fill:#fed126;stroke-width:0.264583" />
      <path
         id="path1606"
         d="m -83.693728,151.5318 c -0.340508,-0.48614 -0.411878,-1.535 -0.411878,-6.05301 0,-4.76073 0.05638,-5.51178 0.43754,-5.82811 0.652014,-0.54113 48.743738,-0.54113 49.395753,0 0.381154,0.31633 0.437539,1.06738 0.437539,5.82811 0,4.51801 -0.07137,5.56687 -0.411877,6.05301 l -0.411879,0.58804 h -24.31166 -24.31166 z m 49.269518,-6.27188 c 0.05514,-3.93532 -0.0069,-5.1902 -0.264583,-5.35376 -0.386239,-0.24513 -47.833683,-0.30498 -48.469132,-0.0611 -0.36155,0.13874 -0.418514,0.85299 -0.418514,5.24757 0,2.79783 0.07999,5.16696 0.177758,5.26472 0.09777,0.0978 11.140814,0.14738 24.540104,0.11025 l 24.362345,-0.0675 z m -48.623063,2.4943 v -2.24896 h 24.077083 24.077083 v 2.24896 2.24896 H -58.97019 -83.047273 Z"
         style="fill:#fed01c;stroke-width:0.264583" />
      <path
         id="path1604"
         d="m -83.693728,151.5318 c -0.340508,-0.48614 -0.411878,-1.535 -0.411878,-6.05301 0,-4.76073 0.05638,-5.51178 0.43754,-5.82811 0.652014,-0.54113 48.743738,-0.54113 49.395753,0 0.381154,0.31633 0.437539,1.06738 0.437539,5.82811 0,4.51801 -0.07137,5.56687 -0.411877,6.05301 l -0.411879,0.58804 h -24.31166 -24.31166 z m 49.197496,-6.42342 v -5.29166 H -58.97019 -83.444148 l -0.0722,5.01893 c -0.03971,2.76042 -0.01344,5.17205 0.05837,5.3592 0.105359,0.27456 4.844542,0.32721 24.546155,0.27273 l 24.415587,-0.0675 z m -48.373253,4.71981 c -0.09778,-0.0978 -0.177788,-0.81279 -0.177788,-1.5889 v -1.41111 h 24.090287 24.090287 l -0.07935,1.52135 -0.07935,1.52135 -23.833149,0.0676 c -13.108232,0.0371 -23.913154,-0.0125 -24.010937,-0.11024 z"
         style="fill:#fece14;stroke-width:0.264583" />
      <path
         id="path1602"
         d="m -83.693728,151.5318 c -0.340508,-0.48614 -0.411878,-1.535 -0.411878,-6.05301 0,-4.76073 0.05638,-5.51178 0.43754,-5.82811 0.652014,-0.54113 48.743738,-0.54113 49.395753,0 0.381154,0.31633 0.437539,1.06738 0.437539,5.82811 0,4.51801 -0.07137,5.56687 -0.411877,6.05301 l -0.411879,0.58804 h -24.31166 -24.31166 z m 49.197496,-6.42342 v -5.29166 H -58.97019 -83.444148 l -0.0722,5.01893 c -0.03971,2.76042 -0.01344,5.17205 0.05837,5.3592 0.105359,0.27456 4.844542,0.32721 24.546155,0.27273 l 24.415587,-0.0675 z m -48.373253,4.71981 c -0.09778,-0.0978 -0.177788,-0.51514 -0.177788,-0.92744 v -0.74966 h 24.093846 24.093848 l -0.08291,0.8599 -0.08291,0.85989 -23.833149,0.0676 c -13.108232,0.0371 -23.913154,-0.0125 -24.010937,-0.11024 z"
         style="fill:#fecc08;stroke-width:0.264583" />
      <path
         id="path1600"
         d="m -83.693728,151.5318 c -0.340508,-0.48614 -0.411878,-1.535 -0.411878,-6.05301 0,-4.76073 0.05638,-5.51178 0.43754,-5.82811 0.652014,-0.54113 48.743738,-0.54113 49.395753,0 0.381154,0.31633 0.437539,1.06738 0.437539,5.82811 0,4.51801 -0.07137,5.56687 -0.411877,6.05301 l -0.411879,0.58804 h -24.31166 -24.31166 z m 49.197496,-6.42342 v -5.29166 H -58.97019 -83.444148 l -0.0722,5.01893 c -0.03971,2.76042 -0.01344,5.17205 0.05837,5.3592 0.105359,0.27456 4.844542,0.32721 24.546155,0.27273 l 24.415587,-0.0675 z"
         style="fill:#cca300;stroke-width:0.264583" />
      <path
         id="path1598"
         d="m -83.693728,151.5318 c -0.564403,-0.80579 -0.561564,-1.45152 0.0039,-0.88606 0.371941,0.37194 2.977994,0.41577 24.719642,0.41577 21.741648,0 24.347701,-0.0438 24.719642,-0.41577 0.565459,-0.56546 0.568298,0.0803 0.0039,0.88606 l -0.411871,0.58804 h -24.31166 -24.31166 z"
         style="fill:#a78500;stroke-width:0.264583" />
    </g>
  </g>
</svg>
