<?xml version="1.0" encoding="UTF-8" standalone="no"?>
<svg
   xmlns:dc="http://purl.org/dc/elements/1.1/"
   xmlns:cc="http://creativecommons.org/ns#"
   xmlns:rdf="http://www.w3.org/1999/02/22-rdf-syntax-ns#"
   xmlns:svg="http://www.w3.org/2000/svg"
   xmlns="http://www.w3.org/2000/svg"
   xmlns:sodipodi="http://sodipodi.sourceforge.net/DTD/sodipodi-0.dtd"
   xmlns:inkscape="http://www.inkscape.org/namespaces/inkscape"
   inkscape:version="1.0 (4035a4fb49, 2020-05-01)"
   sodipodi:docname="yellow 7.svg"
   id="svg1052"
   version="1.1"
   viewBox="0 0 50.355895 13.020073"
   height="13.020075mm"
   width="50.355896mm">
  <defs
     id="defs1046" />
  <sodipodi:namedview
     inkscape:snap-page="false"
     fit-margin-bottom="0"
     fit-margin-right="0"
     fit-margin-left="0"
     fit-margin-top="0"
     inkscape:window-maximized="1"
     inkscape:window-y="-4"
     inkscape:window-x="-4"
     inkscape:window-height="996"
     inkscape:window-width="1920"
     showgrid="false"
     inkscape:document-rotation="0"
     inkscape:current-layer="layer1"
     inkscape:document-units="mm"
     inkscape:cy="-11.401461"
     inkscape:cx="134.77386"
     inkscape:zoom="3.959798"
     inkscape:pageshadow="2"
     inkscape:pageopacity="0.0"
     borderopacity="1.0"
     bordercolor="#666666"
     pagecolor="#ffffff"
     id="base" />
  <metadata
     id="metadata1049">
    <rdf:RDF>
      <cc:Work
         rdf:about="">
        <dc:format>image/svg+xml</dc:format>
        <dc:type
           rdf:resource="http://purl.org/dc/dcmitype/StillImage" />
        <dc:title></dc:title>
        <dc:title></dc:title>
      </cc:Work>
    </rdf:RDF>
  </metadata>
  <g
     transform="translate(63.702255,-153.29552)"
     id="layer1"
     inkscape:groupmode="layer"
     inkscape:label="Vrstva 1">
    <g
       transform="translate(20.918397,4.4042775)"
       id="g1738">
      <path
         id="path1786"
         d="m -84.260617,161.56607 c -0.450104,-0.4501 -0.450104,-11.87948 0,-12.32958 0.460326,-0.46033 49.175505,-0.46033 49.635832,0 0.450104,0.4501 0.450104,11.87948 0,12.32958 -0.460327,0.46033 -49.175506,0.46033 -49.635832,0 z"
         style="fill:#f3f3f3;stroke-width:0.264583" />
      <path
         id="path1784"
         d="m -84.260617,161.56607 c -0.227931,-0.22793 -0.3175,-1.97936 -0.3175,-6.2084 0,-5.55337 0.02932,-5.90659 0.511773,-6.16479 0.710571,-0.38028 48.536716,-0.38028 49.247286,0 0.482449,0.2582 0.511773,0.61142 0.511773,6.16479 0,4.22904 -0.08957,5.98047 -0.3175,6.2084 -0.460327,0.46033 -49.175506,0.46033 -49.635832,0 z"
         style="fill:#ececec;stroke-width:0.264583" />
      <path
         id="path1782"
         d="m -84.260617,161.56607 c -0.227462,-0.22746 -0.3175,-1.94783 -0.3175,-6.06651 0,-4.87361 0.06331,-5.81233 0.415774,-6.1648 0.371941,-0.37194 2.977994,-0.41577 24.719642,-0.41577 21.741648,0 24.347701,0.0438 24.719642,0.41577 0.35157,0.35157 0.415774,1.27353 0.415774,5.97052 0,3.32305 -0.11004,5.76036 -0.273891,6.06652 -0.267769,0.50033 -0.822749,0.51177 -24.817917,0.51177 -18.737019,0 -24.619143,-0.0751 -24.861524,-0.3175 z m 48.498124,-6.69396 v -4.49791 h -23.680208 -23.680208 l -0.07315,4.22271 c -0.04023,2.32249 -0.01396,4.37696 0.05839,4.56549 0.106603,0.2778 4.608974,0.32996 23.753354,0.2752 l 23.62182,-0.0676 z"
         style="fill:#eeeade;stroke-width:0.264583" />
      <path
         id="path1780"
         d="m -84.260617,161.56607 c -0.227462,-0.22746 -0.3175,-1.94783 -0.3175,-6.06651 0,-4.87361 0.06331,-5.81233 0.415774,-6.1648 0.371941,-0.37194 2.977994,-0.41577 24.719642,-0.41577 21.741648,0 24.347701,0.0438 24.719642,0.41577 0.35157,0.35157 0.415774,1.27353 0.415774,5.97052 0,3.32305 -0.11004,5.76036 -0.273891,6.06652 -0.267769,0.50033 -0.822749,0.51177 -24.817917,0.51177 -18.737019,0 -24.619143,-0.0751 -24.861524,-0.3175 z m 48.570516,-6.62781 -0.07239,-4.56406 h -23.680208 -23.680208 l -0.07239,4.56406 -0.07239,4.56406 h 23.824995 23.824996 z"
         style="fill:#e3e3e3;stroke-width:0.264583" />
      <path
         id="path1778"
         d="m -84.304225,161.3718 c -0.16387,-0.30619 -0.273892,-2.74468 -0.273892,-6.07041 0,-5.44421 0.01211,-5.56712 0.588038,-5.97052 0.521711,-0.36542 3.290524,-0.41188 24.547378,-0.41188 21.256855,0 24.025666,0.0465 24.547377,0.41188 0.575934,0.4034 0.588039,0.52631 0.588039,5.97052 0,3.32573 -0.110022,5.76422 -0.273891,6.07041 -0.267775,0.50034 -0.823243,0.51177 -24.861525,0.51177 -24.038281,0 -24.593751,-0.0114 -24.861524,-0.51177 z m 48.614124,-6.43354 -0.07239,-4.56406 h -23.680208 -23.680208 l -0.07239,4.56406 -0.07239,4.56406 h 23.824995 23.824996 z"
         style="fill:#dcdcdc;stroke-width:0.264583" />
      <path
         id="path1776"
         d="m -84.162343,161.4678 c -0.351957,-0.35196 -0.415774,-1.28103 -0.415774,-6.05302 0,-4.92096 0.0556,-5.68339 0.43754,-6.00037 0.652014,-0.54113 48.743738,-0.54113 49.395753,0 0.381945,0.31698 0.437539,1.07941 0.437539,6.00037 0,4.77199 -0.06382,5.70106 -0.415774,6.05302 -0.371941,0.37194 -2.977994,0.41577 -24.719642,0.41577 -21.741648,0 -24.347701,-0.0438 -24.719642,-0.41577 z m 48.472242,-6.52954 -0.07239,-4.56406 h -23.680208 -23.680208 l -0.07239,4.56406 -0.07239,4.56406 h 23.824995 23.824996 z"
         style="fill:#dbdbdb;stroke-width:0.264583" />
      <path
         id="path1774"
         d="m -84.162343,161.4678 c -0.585979,-0.58598 -0.621539,-11.10794 -0.04023,-11.90293 0.367047,-0.50196 0.927422,-0.51359 24.759869,-0.51359 23.832446,0 24.392823,0.0116 24.759869,0.51359 0.581311,0.79499 0.545751,11.31695 -0.04023,11.90293 -0.371941,0.37194 -2.977994,0.41577 -24.719642,0.41577 -21.741648,0 -24.347701,-0.0438 -24.719642,-0.41577 z m 48.472242,-6.52954 -0.07239,-4.56406 h -23.680208 -23.680208 l -0.07239,4.56406 -0.07239,4.56406 h 23.824995 23.824996 z"
         style="fill:#f1e4b1;stroke-width:0.264583" />
      <path
         id="path1772"
         d="m -84.162343,161.4678 c -0.585979,-0.58598 -0.621539,-11.10794 -0.04023,-11.90293 0.367047,-0.50196 0.927422,-0.51359 24.759869,-0.51359 23.832446,0 24.392823,0.0116 24.759869,0.51359 0.581311,0.79499 0.545751,11.31695 -0.04023,11.90293 -0.371941,0.37194 -2.977994,0.41577 -24.719642,0.41577 -21.741648,0 -24.347701,-0.0438 -24.719642,-0.41577 z m 48.532141,-6.59569 v -4.6302 H -59.442701 -83.2552 v 4.6302 4.63021 h 23.812499 23.812499 z"
         style="fill:#d4d4d4;stroke-width:0.264583" />
      <path
         id="path1770"
         d="m -84.162343,161.4678 c -0.228676,-0.22868 -0.406374,-0.79422 -0.394886,-1.25677 0.01149,-0.46255 0.08472,-0.6624 0.162728,-0.44412 0.383586,1.07329 0.03083,1.05833 24.9518,1.05833 24.920969,0 24.568213,0.015 24.9518,-1.05833 0.07801,-0.21828 0.151239,-0.0184 0.162727,0.44412 0.04437,1.78648 1.755164,1.67254 -25.114527,1.67254 -21.741648,0 -24.347701,-0.0438 -24.719642,-0.41577 z m 0.272746,-1.39252 c -0.242791,-0.39285 -0.213196,-10.14995 0.03153,-10.39467 0.134837,-0.13484 10.618169,-0.20641 24.562281,-0.1677 l 24.327044,0.0675 v 5.29166 5.29167 l -24.391348,0.0675 c -13.415241,0.0371 -24.453519,-0.0331 -24.529506,-0.15602 z m 48.259395,-5.20317 v -4.6302 H -59.442701 -83.2552 v 4.6302 4.63021 h 23.812499 23.812499 z"
         style="fill:#d6d3c6;stroke-width:0.264583" />
      <path
         id="path1768"
         d="m -84.162343,161.4678 c -0.228676,-0.22868 -0.406374,-0.79422 -0.394886,-1.25677 0.01149,-0.46255 0.08472,-0.6624 0.162728,-0.44412 0.383586,1.07329 0.03083,1.05833 24.9518,1.05833 24.920969,0 24.568213,0.015 24.9518,-1.05833 0.07801,-0.21828 0.151239,-0.0184 0.162727,0.44412 0.04437,1.78648 1.755164,1.67254 -25.114527,1.67254 -21.741648,0 -24.347701,-0.0438 -24.719642,-0.41577 z m 0.231858,-1.50922 c -0.07181,-0.18715 -0.09808,-2.59878 -0.05837,-5.3592 l 0.0722,-5.01893 h 24.473958 24.473958 v 5.29166 5.29167 l -24.415587,0.0675 c -19.701613,0.0545 -24.440796,0.002 -24.546155,-0.27273 z m 48.300283,-5.08647 v -4.6302 H -59.442701 -83.2552 v 4.6302 4.63021 h 23.812499 23.812499 z"
         style="fill:#cecece;stroke-width:0.264583" />
      <path
         id="path1766"
         d="m -84.162343,161.4678 c -0.228676,-0.22868 -0.415774,-0.73142 -0.415774,-1.11721 v -0.70143 l 0.411878,0.58804 0.411878,0.58804 h 24.31166 24.31166 l 0.411879,-0.58804 0.411877,-0.58804 v 0.70143 c 0,1.62547 1.516462,1.53298 -25.135416,1.53298 -21.741648,0 -24.347701,-0.0438 -24.719642,-0.41577 z m 0.231858,-1.50922 c -0.07181,-0.18715 -0.09808,-2.59878 -0.05837,-5.3592 l 0.0722,-5.01893 h 24.473958 24.473958 v 5.29166 5.29167 l -24.415587,0.0675 c -19.701613,0.0545 -24.440796,0.002 -24.546155,-0.27273 z m 48.300283,-5.08647 v -4.6302 H -59.442701 -83.2552 v 4.6302 4.63021 h 23.812499 23.812499 z"
         style="fill:#c8c8c8;stroke-width:0.264583" />
      <path
         id="path1764"
         d="m -84.140235,161.39972 c -0.240835,-0.26612 -0.437882,-0.76886 -0.437882,-1.11721 v -0.63335 l 0.411878,0.58804 0.411878,0.58804 h 24.31166 24.31166 l 0.411879,-0.58804 0.411877,-0.58804 v 0.67933 c 0,0.37362 -0.217734,0.87637 -0.483854,1.1172 -0.442812,0.40074 -2.537746,0.43788 -24.697534,0.43788 -23.121801,0 -24.233425,-0.0218 -24.651562,-0.48385 z m 0.20975,-1.44114 c -0.07181,-0.18715 -0.09808,-2.59878 -0.05837,-5.3592 l 0.0722,-5.01893 h 24.473958 24.473958 v 5.29166 5.29167 l -24.415587,0.0675 c -19.701613,0.0545 -24.440796,0.002 -24.546155,-0.27273 z m 48.300283,-5.08647 v -4.6302 H -59.442701 -83.2552 v 4.6302 4.63021 h 23.812499 23.812499 z"
         style="fill:#c6c6c6;stroke-width:0.264583" />
      <path
         id="path1762"
         d="m -84.140235,161.39972 c -0.240835,-0.26612 -0.437882,-0.70129 -0.437882,-0.96705 0,-0.45135 0.03189,-0.45434 0.483854,-0.0453 0.442798,0.40072 2.534551,0.43788 24.651562,0.43788 22.11701,0 24.208763,-0.0372 24.651562,-0.43788 0.453427,-0.41035 0.483854,-0.40461 0.483854,0.0913 0,0.29104 -0.217734,0.72622 -0.483854,0.96705 -0.442812,0.40074 -2.537746,0.43788 -24.697534,0.43788 -23.121801,0 -24.233425,-0.0218 -24.651562,-0.48385 z m 0.20975,-1.44114 c -0.07181,-0.18715 -0.09808,-2.59878 -0.05837,-5.3592 l 0.0722,-5.01893 h 24.473958 24.473958 v 5.29166 5.29167 l -24.415587,0.0675 c -19.701613,0.0545 -24.440796,0.002 -24.546155,-0.27273 z m 48.300283,-5.08647 v -4.6302 H -59.442701 -83.2552 v 4.6302 4.63021 h 23.812499 23.812499 z"
         style="fill:#c2c2c2;stroke-width:0.264583" />
      <path
         id="path1760"
         d="m -84.166239,161.29553 c -0.564403,-0.80579 -0.561564,-1.45152 0.0039,-0.88606 0.371941,0.37194 2.977994,0.41577 24.719642,0.41577 21.741648,0 24.347701,-0.0438 24.719642,-0.41577 0.565459,-0.56546 0.568298,0.0803 0.0039,0.88606 l -0.411871,0.58804 h -24.31166 -24.31166 z m 0.235754,-1.33695 c -0.07181,-0.18715 -0.09808,-2.59878 -0.05837,-5.3592 l 0.0722,-5.01893 h 24.473958 24.473958 v 5.29166 5.29167 l -24.415587,0.0675 c -19.701613,0.0545 -24.440796,0.002 -24.546155,-0.27273 z m 48.300283,-5.08647 v -4.6302 H -59.442701 -83.2552 v 4.6302 4.63021 h 23.812499 23.812499 z"
         style="fill:#e6d076;stroke-width:0.264583" />
      <path
         id="path1758"
         d="m -84.166239,161.29553 c -0.564403,-0.80579 -0.561564,-1.45152 0.0039,-0.88606 0.371941,0.37194 2.977994,0.41577 24.719642,0.41577 21.741648,0 24.347701,-0.0438 24.719642,-0.41577 0.565459,-0.56546 0.568298,0.0803 0.0039,0.88606 l -0.411871,0.58804 h -24.31166 -24.31166 z m 0.295047,-1.17448 c -0.09777,-0.0978 -0.177758,-2.46689 -0.177758,-5.26472 0,-4.39458 0.05696,-5.10883 0.418514,-5.24757 0.635449,-0.24385 48.082893,-0.184 48.469132,0.0611 0.257709,0.16356 0.319725,1.41844 0.264583,5.35376 l -0.07202,5.14013 -24.362345,0.0675 c -13.39929,0.0371 -24.442336,-0.0125 -24.540104,-0.11025 z m 48.24099,-5.24894 v -4.6302 H -59.442701 -83.2552 v 4.6302 4.63021 h 23.812499 23.812499 z"
         style="fill:#b9b9b9;stroke-width:0.264583" />
      <path
         id="path1756"
         d="m -84.166239,161.29553 c -0.226533,-0.32342 -0.408257,-0.7699 -0.403832,-0.99218 0.0065,-0.32599 0.0602,-0.3146 0.27773,0.0589 0.25378,0.43571 1.719285,0.46302 24.84964,0.46302 23.130356,0 24.595859,-0.0273 24.84964,-0.46302 0.217527,-0.37347 0.27124,-0.38486 0.27773,-0.0589 0.0044,0.22228 -0.1773,0.66876 -0.403831,0.99218 l -0.411879,0.58804 h -24.31166 -24.31166 z m 0.295047,-1.17448 c -0.09777,-0.0978 -0.177758,-2.46689 -0.177758,-5.26472 0,-4.39458 0.05696,-5.10883 0.418514,-5.24757 0.635449,-0.24385 48.082893,-0.184 48.469132,0.0611 0.257709,0.16356 0.319725,1.41844 0.264583,5.35376 l -0.07202,5.14013 -24.362345,0.0675 c -13.39929,0.0371 -24.442336,-0.0125 -24.540104,-0.11025 z m 48.24099,-5.24894 v -4.6302 H -59.442701 -83.2552 v 4.6302 4.63021 h 23.812499 23.812499 z"
         style="fill:#e9cf69;stroke-width:0.264583" />
      <path
         id="path1754"
         d="m -84.166239,161.29553 c -0.226533,-0.32342 -0.408257,-0.7699 -0.403832,-0.99218 0.0065,-0.32599 0.0602,-0.3146 0.27773,0.0589 0.25378,0.43571 1.719285,0.46302 24.84964,0.46302 23.130356,0 24.595859,-0.0273 24.84964,-0.46302 0.217527,-0.37347 0.27124,-0.38486 0.27773,-0.0589 0.0044,0.22228 -0.1773,0.66876 -0.403831,0.99218 l -0.411879,0.58804 h -24.31166 -24.31166 z m 0.277888,-1.41797 c -0.08833,-0.23018 -0.160599,-2.5987 -0.160599,-5.26336 0,-4.17379 0.05797,-4.86709 0.418514,-5.00544 0.546952,-0.20989 47.828517,-0.20989 48.375469,0 0.360548,0.13835 0.418515,0.83165 0.418515,5.00544 0,2.66466 -0.07227,5.03318 -0.160599,5.26336 -0.14483,0.37742 -2.544934,0.41851 -24.44565,0.41851 -21.900715,0 -24.300819,-0.0411 -24.44565,-0.41851 z m 48.258149,-5.00545 v -4.6302 H -59.442701 -83.2552 v 4.6302 4.63021 h 23.812499 23.812499 z"
         style="fill:#b2b2b2;stroke-width:0.264583" />
      <path
         id="path1752"
         d="m -84.04895,161.35441 c -0.291042,-0.29105 -0.529167,-0.67205 -0.529167,-0.84667 0,-0.24694 0.07056,-0.24694 0.3175,0 0.460326,0.46033 49.175505,0.46033 49.635832,0 0.246944,-0.24694 0.3175,-0.24694 0.3175,0 0,0.17462 -0.238125,0.55562 -0.529167,0.84667 -0.521414,0.52141 -0.881943,0.52916 -24.606249,0.52916 -23.724305,0 -24.084836,-0.008 -24.606249,-0.52916 z m 0.160599,-1.47685 c -0.08833,-0.23018 -0.160599,-2.5987 -0.160599,-5.26336 0,-4.17379 0.05797,-4.86709 0.418514,-5.00544 0.546952,-0.20989 47.828517,-0.20989 48.375469,0 0.360548,0.13835 0.418515,0.83165 0.418515,5.00544 0,2.66466 -0.07227,5.03318 -0.160599,5.26336 -0.14483,0.37742 -2.544934,0.41851 -24.44565,0.41851 -21.900715,0 -24.300819,-0.0411 -24.44565,-0.41851 z m 48.258149,-5.00545 v -4.6302 H -59.442701 -83.2552 v 4.6302 4.63021 h 23.812499 23.812499 z"
         style="fill:#ebce5c;stroke-width:0.264583" />
      <path
         id="path1750"
         d="m -84.04895,161.35441 c -0.291042,-0.29105 -0.529167,-0.67205 -0.529167,-0.84667 0,-0.24694 0.07056,-0.24694 0.3175,0 0.460326,0.46033 49.175505,0.46033 49.635832,0 0.246944,-0.24694 0.3175,-0.24694 0.3175,0 0,0.17462 -0.238125,0.55562 -0.529167,0.84667 -0.521414,0.52141 -0.881943,0.52916 -24.606249,0.52916 -23.724305,0 -24.084836,-0.008 -24.606249,-0.52916 z m 0.3175,-1.37584 c -0.447122,-0.44712 -0.447122,-9.76579 0,-10.21291 0.460255,-0.46026 48.117242,-0.46026 48.577498,0 0.447122,0.44712 0.447122,9.76579 0,10.21291 -0.460256,0.46026 -48.117243,0.46026 -48.577498,0 z m 48.101248,-5.10646 v -4.6302 H -59.442701 -83.2552 v 4.6302 4.63021 h 23.812499 23.812499 z"
         style="fill:#acacac;stroke-width:0.264583" />
      <path
         id="path1748"
         d="m -83.829117,161.55284 c -0.22576,-0.1819 -0.493695,-0.56885 -0.595412,-0.85989 -0.148367,-0.42453 -0.119053,-0.46377 0.148237,-0.19844 0.487543,0.48396 49.179639,0.48396 49.667184,0 0.267287,-0.26533 0.296603,-0.22609 0.148235,0.19844 -0.42895,1.22736 0.341821,1.19062 -24.981828,1.19062 -18.785447,0 -24.064806,-0.0716 -24.386416,-0.33073 z m 0.09767,-1.57427 c -0.447122,-0.44712 -0.447122,-9.76579 0,-10.21291 0.460255,-0.46026 48.117242,-0.46026 48.577498,0 0.447122,0.44712 0.447122,9.76579 0,10.21291 -0.460256,0.46026 -48.117243,0.46026 -48.577498,0 z m 48.101248,-5.10646 v -4.6302 H -59.442701 -83.2552 v 4.6302 4.63021 h 23.812499 23.812499 z"
         style="fill:#a9a9a9;stroke-width:0.264583" />
      <path
         id="path1746"
         d="m -83.73145,159.97857 c -0.447122,-0.44712 -0.447122,-9.76579 0,-10.21291 0.460255,-0.46026 48.117242,-0.46026 48.577498,0 0.447122,0.44712 0.447122,9.76579 0,10.21291 -0.460256,0.46026 -48.117243,0.46026 -48.577498,0 z m 48.101248,-5.10646 v -4.6302 H -59.442701 -83.2552 v 4.6302 4.63021 h 23.812499 23.812499 z"
         style="fill:#f3cd34;stroke-width:0.264583" />
      <path
         id="path1744"
         d="m -83.73145,159.97857 c -0.223843,-0.22384 -0.3175,-1.7477 -0.3175,-5.16592 v -4.84842 l 0.678682,-0.25804 c 0.920909,-0.35013 46.934225,-0.35013 47.855134,0 l 0.678682,0.25804 v 4.84842 c 0,3.41822 -0.09366,4.94208 -0.3175,5.16592 -0.460256,0.46026 -48.117243,0.46026 -48.577498,0 z m 48.101248,-5.10646 v -4.6302 H -59.442701 -83.2552 v 4.6302 4.63021 h 23.812499 23.812499 z"
         style="fill:#f8cc19;stroke-width:0.264583" />
      <path
         id="path1742"
         d="m -83.775058,159.7843 c -0.159025,-0.29714 -0.273892,-2.46367 -0.273892,-5.16592 v -4.65415 l 0.678682,-0.25804 c 0.920909,-0.35013 46.934225,-0.35013 47.855134,0 l 0.678682,0.25804 v 4.65415 c 0,2.70225 -0.114869,4.86878 -0.273891,5.16592 -0.267708,0.50021 -0.817248,0.51177 -24.332358,0.51177 -23.515109,0 -24.06465,-0.0116 -24.332357,-0.51177 z m 48.144856,-4.91219 v -4.6302 H -59.442701 -83.2552 v 4.6302 4.63021 h 23.812499 23.812499 z"
         style="fill:#fccd0d;stroke-width:0.264583" />
      <path
         id="path1740"
         d="m -83.775058,159.7843 c -0.159025,-0.29714 -0.273892,-2.46367 -0.273892,-5.16592 v -4.65415 l 0.678682,-0.25804 c 0.920909,-0.35013 46.934225,-0.35013 47.855134,0 l 0.678682,0.25804 v 4.65415 c 0,2.70225 -0.114869,4.86878 -0.273891,5.16592 -0.267708,0.50021 -0.817248,0.51177 -24.332358,0.51177 -23.515109,0 -24.06465,-0.0116 -24.332357,-0.51177 z m 48.199204,-4.91251 0.07794,-4.63054 -23.878645,3.3e-4 -23.878645,3.3e-4 v 4.6302 4.63021 h 23.800702 23.800701 z"
         style="fill:#fecb00;stroke-width:0.264583" />
    </g>
  </g>
</svg>
