<?xml version="1.0" encoding="UTF-8" standalone="no"?>
<svg
   xmlns:dc="http://purl.org/dc/elements/1.1/"
   xmlns:cc="http://creativecommons.org/ns#"
   xmlns:rdf="http://www.w3.org/1999/02/22-rdf-syntax-ns#"
   xmlns:svg="http://www.w3.org/2000/svg"
   xmlns="http://www.w3.org/2000/svg"
   xmlns:sodipodi="http://sodipodi.sourceforge.net/DTD/sodipodi-0.dtd"
   xmlns:inkscape="http://www.inkscape.org/namespaces/inkscape"
   inkscape:version="1.0 (4035a4fb49, 2020-05-01)"
   sodipodi:docname="yellow 6.svg"
   id="svg1052"
   version="1.1"
   viewBox="0 0 50.370563 13.020073"
   height="13.020075mm"
   width="50.370564mm">
  <defs
     id="defs1046" />
  <sodipodi:namedview
     inkscape:snap-page="false"
     fit-margin-bottom="0"
     fit-margin-right="0"
     fit-margin-left="0"
     fit-margin-top="0"
     inkscape:window-maximized="1"
     inkscape:window-y="-4"
     inkscape:window-x="-4"
     inkscape:window-height="996"
     inkscape:window-width="1920"
     showgrid="false"
     inkscape:document-rotation="0"
     inkscape:current-layer="layer1"
     inkscape:document-units="mm"
     inkscape:cy="-6.8604786"
     inkscape:cx="92.654574"
     inkscape:zoom="5.6"
     inkscape:pageshadow="2"
     inkscape:pageopacity="0.0"
     borderopacity="1.0"
     bordercolor="#666666"
     pagecolor="#ffffff"
     id="base" />
  <metadata
     id="metadata1049">
    <rdf:RDF>
      <cc:Work
         rdf:about="">
        <dc:format>image/svg+xml</dc:format>
        <dc:type
           rdf:resource="http://purl.org/dc/dcmitype/StillImage" />
        <dc:title></dc:title>
        <dc:title></dc:title>
      </cc:Work>
    </rdf:RDF>
  </metadata>
  <g
     transform="translate(65.190182,-149.33783)"
     id="layer1"
     inkscape:groupmode="layer"
     inkscape:label="Vrstva 1">
    <g
       transform="translate(7.6372254,6.1158949)"
       id="g1614">
      <path
         id="path1660"
         d="m -72.460042,155.89676 c -0.450104,-0.4501 -0.450104,-11.87948 0,-12.32958 0.460326,-0.46033 49.175505,-0.46033 49.635832,0 0.450104,0.4501 0.450104,11.87948 0,12.32958 -0.460327,0.46033 -49.175506,0.46033 -49.635832,0 z"
         style="fill:#e3d5a3;stroke-width:0.264583" />
      <path
         id="path1658"
         d="m -72.361768,155.79849 c -0.620853,-0.62085 -0.620853,-11.51218 0,-12.13304 0.371941,-0.37194 2.977994,-0.41577 24.719642,-0.41577 21.741648,0 24.347701,0.0438 24.719642,0.41577 0.620853,0.62086 0.620853,11.51219 0,12.13304 -0.371941,0.37194 -2.977994,0.41577 -24.719642,0.41577 -21.741648,0 -24.347701,-0.0438 -24.719642,-0.41577 z"
         style="fill:#fed847;stroke-width:0.264583" />
      <path
         id="path1656"
         d="m -72.361768,155.79849 c -0.620853,-0.62085 -0.620853,-11.51218 0,-12.13304 0.371941,-0.37194 2.977994,-0.41577 24.719642,-0.41577 21.741648,0 24.347701,0.0438 24.719642,0.41577 0.620853,0.62086 0.620853,11.51219 0,12.13304 -0.371941,0.37194 -2.977994,0.41577 -24.719642,0.41577 -21.741648,0 -24.347701,-0.0438 -24.719642,-0.41577 z m 49.052,-1.6835 c 0.159022,-0.29714 0.273891,-2.46367 0.273891,-5.16592 v -4.65415 l -0.678682,-0.25804 c -0.920909,-0.35013 -46.934225,-0.35013 -47.855134,0 l -0.678682,0.25804 v 4.65415 c 0,2.70225 0.114867,4.86878 0.273892,5.16592 0.267707,0.50021 0.817248,0.51177 24.332357,0.51177 23.51511,0 24.06465,-0.0116 24.332358,-0.51177 z m -48.409441,-4.91219 v -4.89479 h 24.077083 24.077083 v 4.89479 4.8948 h -24.077083 -24.077083 z"
         style="fill:#fed641;stroke-width:0.264583" />
      <path
         id="path1654"
         d="m -72.361768,155.79849 c -0.620853,-0.62085 -0.620853,-11.51218 0,-12.13304 0.371941,-0.37194 2.977994,-0.41577 24.719642,-0.41577 21.741648,0 24.347701,0.0438 24.719642,0.41577 0.620853,0.62086 0.620853,11.51219 0,12.13304 -0.371941,0.37194 -2.977994,0.41577 -24.719642,0.41577 -21.741648,0 -24.347701,-0.0438 -24.719642,-0.41577 z m 49.052,-1.6835 c 0.159022,-0.29714 0.273891,-2.46367 0.273891,-5.16592 v -4.65415 l -0.678682,-0.25804 c -0.920909,-0.35013 -46.934225,-0.35013 -47.855134,0 l -0.678682,0.25804 v 4.65415 c 0,2.70225 0.114867,4.86878 0.273892,5.16592 0.267707,0.50021 0.817248,0.51177 24.332357,0.51177 23.51511,0 24.06465,-0.0116 24.332358,-0.51177 z m -48.409441,-4.51531 v -4.49792 h 24.077083 24.077083 v 4.49792 4.49792 h -24.077083 -24.077083 z"
         style="fill:#fed63d;stroke-width:0.264583" />
      <path
         id="path1652"
         d="m -72.361768,155.79849 c -0.620853,-0.62085 -0.620853,-11.51218 0,-12.13304 0.371941,-0.37194 2.977994,-0.41577 24.719642,-0.41577 21.741648,0 24.347701,0.0438 24.719642,0.41577 0.620853,0.62086 0.620853,11.51219 0,12.13304 -0.371941,0.37194 -2.977994,0.41577 -24.719642,0.41577 -21.741648,0 -24.347701,-0.0438 -24.719642,-0.41577 z m 49.008391,-1.48923 c 0.223843,-0.22384 0.3175,-1.7477 0.3175,-5.16592 v -4.84842 l -0.678682,-0.25804 c -0.920909,-0.35013 -46.934225,-0.35013 -47.855134,0 l -0.678682,0.25804 v 4.84842 c 0,3.41822 0.09366,4.94208 0.3175,5.16592 0.460255,0.46026 48.117242,0.46026 48.577498,0 z m -48.365832,-4.445 v -4.23333 h 24.077083 24.077083 v 4.23333 4.23334 h -24.077083 -24.077083 z"
         style="fill:#fed539;stroke-width:0.264583" />
      <path
         id="path1650"
         d="m -72.361768,155.79849 c -0.620853,-0.62085 -0.620853,-11.51218 0,-12.13304 0.371941,-0.37194 2.977994,-0.41577 24.719642,-0.41577 21.741648,0 24.347701,0.0438 24.719642,0.41577 0.620853,0.62086 0.620853,11.51219 0,12.13304 -0.371941,0.37194 -2.977994,0.41577 -24.719642,0.41577 -21.741648,0 -24.347701,-0.0438 -24.719642,-0.41577 z m 49.008391,-1.48923 c 0.223843,-0.22384 0.3175,-1.7477 0.3175,-5.16592 v -4.84842 l -0.678682,-0.25804 c -0.920909,-0.35013 -46.934225,-0.35013 -47.855134,0 l -0.678682,0.25804 v 4.84842 c 0,3.41822 0.09366,4.94208 0.3175,5.16592 0.460255,0.46026 48.117242,0.46026 48.577498,0 z m -48.365832,-4.18041 v -3.96875 h 24.077083 24.077083 v 3.96875 3.96875 h -24.077083 -24.077083 z"
         style="fill:#fed436;stroke-width:0.264583" />
      <path
         id="path1648"
         d="m -72.361768,155.79849 c -0.620853,-0.62085 -0.620853,-11.51218 0,-12.13304 0.371941,-0.37194 2.977994,-0.41577 24.719642,-0.41577 21.741648,0 24.347701,0.0438 24.719642,0.41577 0.620853,0.62086 0.620853,11.51219 0,12.13304 -0.371941,0.37194 -2.977994,0.41577 -24.719642,0.41577 -21.741648,0 -24.347701,-0.0438 -24.719642,-0.41577 z m 49.008391,-1.48923 c 0.447122,-0.44712 0.447122,-9.76579 0,-10.21291 -0.460256,-0.46026 -48.117243,-0.46026 -48.577498,0 -0.447122,0.44712 -0.447122,9.76579 0,10.21291 0.460255,0.46026 48.117242,0.46026 48.577498,0 z m -48.365832,-3.91583 v -3.70417 h 24.077083 24.077083 v 3.70417 3.70417 h -24.077083 -24.077083 z"
         style="fill:#fed432;stroke-width:0.264583" />
      <path
         id="path1646"
         d="m -72.361768,155.79849 c -0.620853,-0.62085 -0.620853,-11.51218 0,-12.13304 0.371941,-0.37194 2.977994,-0.41577 24.719642,-0.41577 21.741648,0 24.347701,0.0438 24.719642,0.41577 0.620853,0.62086 0.620853,11.51219 0,12.13304 -0.371941,0.37194 -2.977994,0.41577 -24.719642,0.41577 -21.741648,0 -24.347701,-0.0438 -24.719642,-0.41577 z m 49.008391,-1.48923 c 0.447122,-0.44712 0.447122,-9.76579 0,-10.21291 -0.460256,-0.46026 -48.117243,-0.46026 -48.577498,0 -0.447122,0.44712 -0.447122,9.76579 0,10.21291 0.460255,0.46026 48.117242,0.46026 48.577498,0 z m -48.365832,-3.51896 v -3.30729 h 24.077083 24.077083 v 3.30729 3.3073 h -24.077083 -24.077083 z"
         style="fill:#dec460;stroke-width:0.264583" />
      <path
         id="path1644"
         d="m -72.361768,155.79849 c -0.352037,-0.35204 -0.415774,-1.28261 -0.415774,-6.07041 0,-5.54341 0.01157,-5.66275 0.588038,-6.06652 0.521711,-0.36542 3.290524,-0.41188 24.547378,-0.41188 21.256855,0 24.025666,0.0465 24.547377,0.41188 0.576471,0.40377 0.588039,0.52311 0.588039,6.06652 0,4.7878 -0.06373,5.71837 -0.415774,6.07041 -0.371941,0.37194 -2.977994,0.41577 -24.719642,0.41577 -21.741648,0 -24.347701,-0.0438 -24.719642,-0.41577 z m 49.008391,-1.48923 c 0.447122,-0.44712 0.447122,-9.76579 0,-10.21291 -0.460256,-0.46026 -48.117243,-0.46026 -48.577498,0 -0.447122,0.44712 -0.447122,9.76579 0,10.21291 0.460255,0.46026 48.117242,0.46026 48.577498,0 z m -48.365832,-3.51896 v -3.30729 h 24.077083 24.077083 v 3.30729 3.3073 h -24.077083 -24.077083 z"
         style="fill:#fed32d;stroke-width:0.264583" />
      <path
         id="path1642"
         d="m -72.361768,155.79849 c -0.352037,-0.35204 -0.415774,-1.28261 -0.415774,-6.07041 0,-5.54341 0.01157,-5.66275 0.588038,-6.06652 0.521711,-0.36542 3.290524,-0.41188 24.547378,-0.41188 21.256855,0 24.025666,0.0465 24.547377,0.41188 0.576471,0.40377 0.588039,0.52311 0.588039,6.06652 0,4.7878 -0.06373,5.71837 -0.415774,6.07041 -0.371941,0.37194 -2.977994,0.41577 -24.719642,0.41577 -21.741648,0 -24.347701,-0.0438 -24.719642,-0.41577 z m 49.008391,-1.48923 c 0.447122,-0.44712 0.447122,-9.76579 0,-10.21291 -0.460256,-0.46026 -48.117243,-0.46026 -48.577498,0 -0.447122,0.44712 -0.447122,9.76579 0,10.21291 0.460255,0.46026 48.117242,0.46026 48.577498,0 z m -48.365832,-3.25437 v -3.04271 h 24.077083 24.077083 v 3.04271 3.04271 h -24.077083 -24.077083 z"
         style="fill:#fed22a;stroke-width:0.264583" />
      <path
         id="path1640"
         d="m -72.361768,155.79849 c -0.352037,-0.35204 -0.415774,-1.28261 -0.415774,-6.07041 0,-5.54341 0.01157,-5.66275 0.588038,-6.06652 0.521711,-0.36542 3.290524,-0.41188 24.547378,-0.41188 21.256855,0 24.025666,0.0465 24.547377,0.41188 0.576471,0.40377 0.588039,0.52311 0.588039,6.06652 0,4.7878 -0.06373,5.71837 -0.415774,6.07041 -0.371941,0.37194 -2.977994,0.41577 -24.719642,0.41577 -21.741648,0 -24.347701,-0.0438 -24.719642,-0.41577 z m 49.008391,-1.48923 c 0.447122,-0.44712 0.447122,-9.76579 0,-10.21291 -0.460256,-0.46026 -48.117243,-0.46026 -48.577498,0 -0.447122,0.44712 -0.447122,9.76579 0,10.21291 0.460255,0.46026 48.117242,0.46026 48.577498,0 z m -48.365832,-2.98979 v -2.77812 h 24.077083 24.077083 v 2.77812 2.77813 h -24.077083 -24.077083 z"
         style="fill:#fed126;stroke-width:0.264583" />
      <path
         id="path1638"
         d="m -72.361768,155.79849 c -0.352037,-0.35204 -0.415774,-1.28261 -0.415774,-6.07041 0,-5.54341 0.01157,-5.66275 0.588038,-6.06652 0.521711,-0.36542 3.290524,-0.41188 24.547378,-0.41188 21.256855,0 24.025666,0.0465 24.547377,0.41188 0.576471,0.40377 0.588039,0.52311 0.588039,6.06652 0,4.7878 -0.06373,5.71837 -0.415774,6.07041 -0.371941,0.37194 -2.977994,0.41577 -24.719642,0.41577 -21.741648,0 -24.347701,-0.0438 -24.719642,-0.41577 z m 49.165292,-1.59024 c 0.08833,-0.23018 0.160599,-2.5987 0.160599,-5.26336 0,-4.17379 -0.05797,-4.86709 -0.418515,-5.00544 -0.546952,-0.20989 -47.828517,-0.20989 -48.375469,0 -0.360546,0.13835 -0.418514,0.83165 -0.418514,5.00544 0,2.66466 0.07227,5.03318 0.160599,5.26336 0.144831,0.37742 2.544935,0.41851 24.44565,0.41851 21.900716,0 24.30082,-0.0411 24.44565,-0.41851 z m -48.522733,-2.6242 v -2.51354 h 24.077083 24.077083 v 2.51354 2.51355 h -24.077083 -24.077083 z"
         style="fill:#fed021;stroke-width:0.264583" />
      <path
         id="path1636"
         d="m -72.361768,155.79849 c -0.352037,-0.35204 -0.415774,-1.28261 -0.415774,-6.07041 0,-5.54341 0.01157,-5.66275 0.588038,-6.06652 0.521711,-0.36542 3.290524,-0.41188 24.547378,-0.41188 21.256855,0 24.025666,0.0465 24.547377,0.41188 0.576471,0.40377 0.588039,0.52311 0.588039,6.06652 0,4.7878 -0.06373,5.71837 -0.415774,6.07041 -0.371941,0.37194 -2.977994,0.41577 -24.719642,0.41577 -21.741648,0 -24.347701,-0.0438 -24.719642,-0.41577 z m 49.265622,-6.44415 c 0.05514,-3.93532 -0.0069,-5.1902 -0.264583,-5.35376 -0.386239,-0.24513 -47.833683,-0.30498 -48.469132,-0.0611 -0.36155,0.13874 -0.418514,0.85299 -0.418514,5.24757 0,2.79783 0.07999,5.16696 0.177758,5.26472 0.09777,0.0978 11.140814,0.14738 24.540104,0.11025 l 24.362345,-0.0675 z m -48.445275,4.56827 c -0.09778,-0.0978 -0.177788,-1.05092 -0.177788,-2.11807 v -1.94028 h 24.088212 24.088213 l -0.07728,2.05052 -0.07727,2.05052 -23.833149,0.0675 c -13.108232,0.0371 -23.913154,-0.0125 -24.010937,-0.11024 z"
         style="fill:#fed01c;stroke-width:0.264583" />
      <path
         id="path1634"
         d="m -72.361768,155.79849 c -0.352037,-0.35204 -0.415774,-1.28261 -0.415774,-6.07041 0,-5.54341 0.01157,-5.66275 0.588038,-6.06652 0.521711,-0.36542 3.290524,-0.41188 24.547378,-0.41188 21.256855,0 24.025666,0.0465 24.547377,0.41188 0.576471,0.40377 0.588039,0.52311 0.588039,6.06652 0,4.7878 -0.06373,5.71837 -0.415774,6.07041 -0.371941,0.37194 -2.977994,0.41577 -24.719642,0.41577 -21.741648,0 -24.347701,-0.0438 -24.719642,-0.41577 z m 49.265622,-6.44415 c 0.05514,-3.93532 -0.0069,-5.1902 -0.264583,-5.35376 -0.386239,-0.24513 -47.833683,-0.30498 -48.469132,-0.0611 -0.36155,0.13874 -0.418514,0.85299 -0.418514,5.24757 0,2.79783 0.07999,5.16696 0.177758,5.26472 0.09777,0.0978 11.140814,0.14738 24.540104,0.11025 l 24.362345,-0.0675 z m -48.445275,4.56827 c -0.09778,-0.0978 -0.177788,-0.93185 -0.177788,-1.85349 v -1.67569 h 24.089172 24.089171 l -0.07823,1.78594 -0.07823,1.78593 -23.833149,0.0675 c -13.108232,0.0371 -23.913154,-0.0125 -24.010937,-0.11024 z"
         style="fill:#fecf19;stroke-width:0.264583" />
      <path
         id="path1632"
         d="m -72.361768,155.79849 c -0.352037,-0.35204 -0.415774,-1.28261 -0.415774,-6.07041 0,-5.54341 0.01157,-5.66275 0.588038,-6.06652 0.521711,-0.36542 3.290524,-0.41188 24.547378,-0.41188 21.256855,0 24.025666,0.0465 24.547377,0.41188 0.576471,0.40377 0.588039,0.52311 0.588039,6.06652 0,4.7878 -0.06373,5.71837 -0.415774,6.07041 -0.371941,0.37194 -2.977994,0.41577 -24.719642,0.41577 -21.741648,0 -24.347701,-0.0438 -24.719642,-0.41577 z m 49.1936,-6.59569 v -5.29166 h -24.473958 -24.473958 l -0.0722,5.01893 c -0.03971,2.76042 -0.01344,5.17205 0.05837,5.3592 0.105359,0.27456 4.844542,0.32721 24.546155,0.27273 l 24.415587,-0.0675 z m -48.373253,4.71981 c -0.09778,-0.0978 -0.177788,-0.81279 -0.177788,-1.5889 v -1.41111 h 24.090287 24.090287 l -0.07935,1.52135 -0.07935,1.52135 -23.833149,0.0675 c -13.108232,0.0371 -23.913154,-0.0125 -24.010937,-0.11024 z"
         style="fill:#fecf16;stroke-width:0.264583" />
      <path
         id="path1630"
         d="m -72.361768,155.79849 c -0.352037,-0.35204 -0.415774,-1.28261 -0.415774,-6.07041 0,-5.54341 0.01157,-5.66275 0.588038,-6.06652 0.521711,-0.36542 3.290524,-0.41188 24.547378,-0.41188 21.256855,0 24.025666,0.0465 24.547377,0.41188 0.576471,0.40377 0.588039,0.52311 0.588039,6.06652 0,4.7878 -0.06373,5.71837 -0.415774,6.07041 -0.371941,0.37194 -2.977994,0.41577 -24.719642,0.41577 -21.741648,0 -24.347701,-0.0438 -24.719642,-0.41577 z m 49.1936,-6.59569 v -5.29166 h -24.473958 -24.473958 l -0.0722,5.01893 c -0.03971,2.76042 -0.01344,5.17205 0.05837,5.3592 0.105359,0.27456 4.844542,0.32721 24.546155,0.27273 l 24.415587,-0.0675 z m -48.373253,4.71981 c -0.09778,-0.0978 -0.177788,-0.69373 -0.177788,-1.32432 v -1.14653 h 24.09158 24.091579 l -0.08064,1.25677 -0.08064,1.25677 -23.833149,0.0675 c -13.108232,0.0371 -23.913154,-0.0125 -24.010937,-0.11024 z"
         style="fill:#fece11;stroke-width:0.264583" />
      <path
         id="path1628"
         d="m -72.361768,155.79849 c -0.352037,-0.35204 -0.415774,-1.28261 -0.415774,-6.07041 0,-5.54341 0.01157,-5.66275 0.588038,-6.06652 0.521711,-0.36542 3.290524,-0.41188 24.547378,-0.41188 21.256855,0 24.025666,0.0465 24.547377,0.41188 0.576471,0.40377 0.588039,0.52311 0.588039,6.06652 0,4.7878 -0.06373,5.71837 -0.415774,6.07041 -0.371941,0.37194 -2.977994,0.41577 -24.719642,0.41577 -21.741648,0 -24.347701,-0.0438 -24.719642,-0.41577 z m 49.1936,-6.59569 v -5.29166 h -24.473958 -24.473958 l -0.0722,5.01893 c -0.03971,2.76042 -0.01344,5.17205 0.05837,5.3592 0.105359,0.27456 4.844542,0.32721 24.546155,0.27273 l 24.415587,-0.0675 z m -48.373253,4.71981 c -0.09778,-0.0978 -0.177788,-0.51514 -0.177788,-0.92744 v -0.74966 h 24.093846 24.093848 l -0.08291,0.8599 -0.08291,0.85989 -23.833149,0.0675 c -13.108232,0.0371 -23.913154,-0.0125 -24.010937,-0.11024 z"
         style="fill:#fecd0d;stroke-width:0.264583" />
      <path
         id="path1626"
         d="m -72.361768,155.79849 c -0.352037,-0.35204 -0.415774,-1.28261 -0.415774,-6.07041 0,-5.54341 0.01157,-5.66275 0.588038,-6.06652 0.521711,-0.36542 3.290524,-0.41188 24.547378,-0.41188 21.256855,0 24.025666,0.0465 24.547377,0.41188 0.576471,0.40377 0.588039,0.52311 0.588039,6.06652 0,4.7878 -0.06373,5.71837 -0.415774,6.07041 -0.371941,0.37194 -2.977994,0.41577 -24.719642,0.41577 -21.741648,0 -24.347701,-0.0438 -24.719642,-0.41577 z m 49.1936,-6.59569 v -5.29166 h -24.473958 -24.473958 l -0.0722,5.01893 c -0.03971,2.76042 -0.01344,5.17205 0.05837,5.3592 0.105359,0.27456 4.844542,0.32721 24.546155,0.27273 l 24.415587,-0.0675 z m -48.373253,4.71981 c -0.09778,-0.0978 -0.177788,-0.39607 -0.177788,-0.66286 0,-0.46682 0.906555,-0.48507 24.095485,-0.48507 h 24.095484 l -0.08455,0.59531 -0.08455,0.59531 -23.833149,0.0675 c -13.108232,0.0371 -23.913154,-0.0125 -24.010937,-0.11024 z"
         style="fill:#fecc0a;stroke-width:0.264583" />
      <path
         id="path1624"
         d="m -72.361768,155.79849 c -0.352037,-0.35204 -0.415774,-1.28261 -0.415774,-6.07041 0,-5.54341 0.01157,-5.66275 0.588038,-6.06652 0.521711,-0.36542 3.290524,-0.41188 24.547378,-0.41188 21.256855,0 24.025666,0.0465 24.547377,0.41188 0.576471,0.40377 0.588039,0.52311 0.588039,6.06652 0,4.7878 -0.06373,5.71837 -0.415774,6.07041 -0.371941,0.37194 -2.977994,0.41577 -24.719642,0.41577 -21.741648,0 -24.347701,-0.0438 -24.719642,-0.41577 z m 49.1936,-6.59569 v -5.29166 h -24.473958 -24.473958 l -0.0722,5.01893 c -0.03971,2.76042 -0.01344,5.17205 0.05837,5.3592 0.105359,0.27456 4.844542,0.32721 24.546155,0.27273 l 24.415587,-0.0675 z m -48.373253,4.71981 c -0.09778,-0.0978 -0.177788,-0.27701 -0.177788,-0.39828 0,-0.12126 10.844609,-0.22048 24.099132,-0.22048 19.161705,0 24.076547,0.0678 23.988901,0.33073 -0.08687,0.26064 -5.15593,0.34504 -23.921344,0.39827 -13.096112,0.0371 -23.891118,-0.0125 -23.988901,-0.11024 z"
         style="fill:#fecb05;stroke-width:0.264583" />
      <path
         id="path1622"
         d="m -72.361768,155.79849 c -0.352037,-0.35204 -0.415774,-1.28261 -0.415774,-6.07041 0,-5.54341 0.01157,-5.66275 0.588038,-6.06652 0.521711,-0.36542 3.290524,-0.41188 24.547378,-0.41188 21.256855,0 24.025666,0.0465 24.547377,0.41188 0.576471,0.40377 0.588039,0.52311 0.588039,6.06652 0,4.7878 -0.06373,5.71837 -0.415774,6.07041 -0.371941,0.37194 -2.977994,0.41577 -24.719642,0.41577 -21.741648,0 -24.347701,-0.0438 -24.719642,-0.41577 z m 49.1936,-6.59569 v -5.29166 h -24.473958 -24.473958 l -0.0722,5.01893 c -0.03971,2.76042 -0.01344,5.17205 0.05837,5.3592 0.105359,0.27456 4.844542,0.32721 24.546155,0.27273 l 24.415587,-0.0675 z"
         style="fill:#cdb34c;stroke-width:0.264583" />
      <path
         id="path1620"
         d="m -72.365664,155.62622 c -0.579918,-0.82794 -0.61125,-10.94441 -0.03633,-11.73066 0.367047,-0.50196 0.927422,-0.51359 24.759869,-0.51359 23.832446,0 24.392823,0.0116 24.759869,0.51359 0.574918,0.78625 0.543587,10.90272 -0.03633,11.73066 l -0.411879,0.58804 h -24.31166 -24.31166 z m 49.197496,-6.42342 v -5.29166 h -24.473958 -24.473958 l -0.0722,5.01893 c -0.03971,2.76042 -0.01344,5.17205 0.05837,5.3592 0.105359,0.27456 4.844542,0.32721 24.546155,0.27273 l 24.415587,-0.0675 z"
         style="fill:#cca300;stroke-width:0.264583" />
      <path
         id="path1618"
         d="m -72.365664,155.62622 c -0.226533,-0.32342 -0.402478,-0.88896 -0.39099,-1.25677 0.01233,-0.39463 0.07902,-0.50606 0.162728,-0.27185 0.383586,1.07329 0.03083,1.05833 24.9518,1.05833 24.920969,0 24.568213,0.015 24.9518,-1.05833 0.0837,-0.23421 0.1504,-0.12278 0.162727,0.27185 0.01148,0.36781 -0.164457,0.93335 -0.390988,1.25677 l -0.411879,0.58804 h -24.31166 -24.31166 z"
         style="fill:#c49d00;stroke-width:0.264583" />
      <path
         id="path1616"
         d="m -72.365664,155.62622 c -0.564403,-0.80579 -0.561564,-1.45152 0.0039,-0.88606 0.371941,0.37194 2.977994,0.41577 24.719642,0.41577 21.741648,0 24.347701,-0.0438 24.719642,-0.41577 0.565459,-0.56546 0.568298,0.0803 0.0039,0.88606 l -0.411871,0.58804 h -24.31166 -24.31166 z"
         style="fill:#a78500;stroke-width:0.264583" />
    </g>
  </g>
</svg>
