<?xml version="1.0" encoding="UTF-8" standalone="no"?>
<svg
   xmlns:dc="http://purl.org/dc/elements/1.1/"
   xmlns:cc="http://creativecommons.org/ns#"
   xmlns:rdf="http://www.w3.org/1999/02/22-rdf-syntax-ns#"
   xmlns:svg="http://www.w3.org/2000/svg"
   xmlns="http://www.w3.org/2000/svg"
   xmlns:sodipodi="http://sodipodi.sourceforge.net/DTD/sodipodi-0.dtd"
   xmlns:inkscape="http://www.inkscape.org/namespaces/inkscape"
   inkscape:version="1.0 (4035a4fb49, 2020-05-01)"
   sodipodi:docname="Button 2 colours.svg"
   id="svg1052"
   version="1.1"
   viewBox="0 0 50.367809 11.961745"
   height="11.961745mm"
   width="50.367809mm">
  <defs
     id="defs1046" />
  <sodipodi:namedview
     fit-margin-bottom="0"
     fit-margin-right="0"
     fit-margin-left="0"
     fit-margin-top="0"
     inkscape:window-maximized="1"
     inkscape:window-y="-4"
     inkscape:window-x="-4"
     inkscape:window-height="996"
     inkscape:window-width="1920"
     showgrid="false"
     inkscape:document-rotation="0"
     inkscape:current-layer="layer1"
     inkscape:document-units="mm"
     inkscape:cy="1.3896042"
     inkscape:cx="75.068263"
     inkscape:zoom="7.9195959"
     inkscape:pageshadow="2"
     inkscape:pageopacity="0.0"
     borderopacity="1.0"
     bordercolor="#666666"
     pagecolor="#ffffff"
     id="base" />
  <metadata
     id="metadata1049">
    <rdf:RDF>
      <cc:Work
         rdf:about="">
        <dc:format>image/svg+xml</dc:format>
        <dc:type
           rdf:resource="http://purl.org/dc/dcmitype/StillImage" />
        <dc:title></dc:title>
        <dc:title></dc:title>
      </cc:Work>
    </rdf:RDF>
  </metadata>
  <g
     transform="translate(52.276046,-125.36969)"
     id="layer1"
     inkscape:groupmode="layer"
     inkscape:label="Vrstva 1">
    <g
       transform="translate(7.6528974,-12.974981)"
       id="g1308">
      <path
         id="path1328"
         d="m -59.880455,144.32554 v -5.95312 h 25.135416 25.135416 v 5.95312 5.95313 h -25.135416 -25.135416 z"
         style="fill:#fefefe;stroke-width:0.264583" />
      <path
         id="path1326"
         d="m -59.562955,149.96117 c -0.448762,-0.44876 -0.448762,-10.82249 0,-11.27125 0.460326,-0.46033 49.175505,-0.46033 49.635832,0 0.4487624,0.44876 0.4487624,10.82249 0,11.27125 -0.460327,0.46033 -49.175506,0.46033 -49.635832,0 z m 49.008391,-0.62744 c 0.347099,-0.3471 0.415774,-1.20038 0.415774,-5.16592 v -4.75015 l -0.678682,-0.25804 c -0.920909,-0.35013 -46.934225,-0.35013 -47.855134,0 l -0.678682,0.25804 v 4.65415 c 0,2.70225 0.114867,4.86878 0.273892,5.16592 0.267688,0.50018 0.81564,0.51177 24.190476,0.51177 21.38957,0 23.960513,-0.0439 24.332356,-0.41577 z m -48.002974,-2.75923 v -2.38125 h 23.812499 23.812499 v 2.38125 2.38125 h -23.812499 -23.812499 z"
         style="fill:#f9f9f9;stroke-width:0.264583" />
      <path
         id="path1324"
         d="m -59.562955,149.96117 c -0.448762,-0.44876 -0.448762,-10.82249 0,-11.27125 0.460326,-0.46033 49.175505,-0.46033 49.635832,0 0.4487624,0.44876 0.4487624,10.82249 0,11.27125 -0.460327,0.46033 -49.175506,0.46033 -49.635832,0 z M -10.45629,149.432 c 0.223843,-0.22384 0.3175,-1.7477 0.3175,-5.16592 v -4.84842 l -0.678682,-0.25804 c -0.920909,-0.35013 -46.934225,-0.35013 -47.855134,0 l -0.678682,0.25804 v 4.84842 c 0,3.41822 0.09366,4.94208 0.3175,5.16592 0.460255,0.46026 48.117242,0.46026 48.577498,0 z m -48.101248,-2.8575 v -2.38125 h 23.812499 23.812499 v 2.38125 2.38125 h -23.812499 -23.812499 z"
         style="fill:#f5f5f5;stroke-width:0.264583" />
      <path
         id="path1322"
         d="m -59.562955,149.96117 c -0.448762,-0.44876 -0.448762,-10.82249 0,-11.27125 0.460326,-0.46033 49.175505,-0.46033 49.635832,0 0.4487624,0.44876 0.4487624,10.82249 0,11.27125 -0.460327,0.46033 -49.175506,0.46033 -49.635832,0 z M -10.45629,149.432 c 0.223843,-0.22384 0.3175,-1.7477 0.3175,-5.16592 v -4.84842 l -0.678682,-0.25804 c -0.920909,-0.35013 -46.934225,-0.35013 -47.855134,0 l -0.678682,0.25804 v 4.84842 c 0,3.41822 0.09366,4.94208 0.3175,5.16592 0.460255,0.46026 48.117242,0.46026 48.577498,0 z m -48.101248,-2.72521 v -2.24895 h 23.812499 23.812499 v 2.24895 2.24896 h -23.812499 -23.812499 z"
         style="fill:#f3f3f3;stroke-width:0.264583" />
      <path
         id="path1320"
         d="m -59.606563,149.7669 c -0.161982,-0.30267 -0.273892,-2.62315 -0.273892,-5.67924 0,-4.83812 0.03262,-5.18491 0.511773,-5.44135 0.710571,-0.38028 48.536716,-0.38028 49.247286,0 0.4791578,0.25644 0.511773,0.60323 0.511773,5.44135 0,3.05609 -0.1119108,5.37657 -0.2738914,5.67924 -0.2677746,0.50034 -0.8232426,0.51177 -24.8615246,0.51177 -24.038281,0 -24.593751,-0.0114 -24.861524,-0.51177 z m 49.150273,-0.3349 c 0.447122,-0.44712 0.447122,-9.76579 0,-10.21291 -0.460256,-0.46026 -48.117243,-0.46026 -48.577498,0 -0.447122,0.44712 -0.447122,9.76579 0,10.21291 0.460255,0.46026 48.117242,0.46026 48.577498,0 z m -48.101248,-2.72521 v -2.24895 h 23.812499 23.812499 v 2.24895 2.24896 h -23.812499 -23.812499 z"
         style="fill:#ededed;stroke-width:0.264583" />
      <path
         id="path1318"
         d="m -59.606563,149.7669 c -0.161225,-0.30126 -0.273892,-2.57907 -0.273892,-5.53735 0,-4.21593 0.06698,-5.09257 0.415774,-5.44136 0.371941,-0.37194 2.977994,-0.41577 24.719642,-0.41577 21.741648,0 24.347701,0.0438 24.719642,0.41577 0.6190163,0.61902 0.6190163,10.45569 0,11.07471 -0.371975,0.37197 -2.990892,0.41577 -24.861523,0.41577 -23.898007,0 -24.451887,-0.0115 -24.719643,-0.51177 z m 49.150273,-0.3349 c 0.447122,-0.44712 0.447122,-9.76579 0,-10.21291 -0.460256,-0.46026 -48.117243,-0.46026 -48.577498,0 -0.447122,0.44712 -0.447122,9.76579 0,10.21291 0.460255,0.46026 48.117242,0.46026 48.577498,0 z"
         style="fill:#eaeaea;stroke-width:0.264583" />
      <path
         id="path1316"
         d="m -59.464681,149.8629 c -0.619016,-0.61902 -0.619016,-10.45569 0,-11.07471 0.371941,-0.37194 2.977994,-0.41577 24.719642,-0.41577 21.741648,0 24.347701,0.0438 24.719642,0.41577 0.6190163,0.61902 0.6190163,10.45569 0,11.07471 -0.371941,0.37194 -2.977994,0.41577 -24.719642,0.41577 -21.741648,0 -24.347701,-0.0438 -24.719642,-0.41577 z m 49.265622,-5.38582 c 0.05514,-3.93532 -0.0069,-5.1902 -0.264583,-5.35376 -0.386239,-0.24513 -47.833683,-0.30498 -48.469132,-0.0611 -0.36155,0.13874 -0.418514,0.85299 -0.418514,5.24757 0,2.79783 0.07999,5.16696 0.177758,5.26472 0.09777,0.0978 11.140814,0.14738 24.540104,0.11025 l 24.362345,-0.0675 z"
         style="fill:#e3e3e3;stroke-width:0.264583" />
      <path
         id="path1314"
         d="m -59.468577,149.69063 c -0.337174,-0.48138 -0.411878,-1.48642 -0.411878,-5.54125 0,-4.81856 0.01598,-4.9644 0.588038,-5.36508 0.521711,-0.36542 3.290524,-0.41188 24.547378,-0.41188 21.256855,0 24.025666,0.0465 24.547377,0.41188 0.5720555,0.40068 0.588039,0.54652 0.588039,5.36508 0,4.05483 -0.074705,5.05987 -0.411877,5.54125 l -0.411879,0.58804 h -24.31166 -24.31166 z m 49.197496,-5.36509 v -5.29166 h -24.473958 -24.473958 l -0.0722,5.01893 c -0.03971,2.76042 -0.01344,5.17206 0.05837,5.3592 0.105359,0.27456 4.844542,0.32721 24.546155,0.27273 l 24.415587,-0.0675 z"
         style="fill:#dcdcdc;stroke-width:0.264583" />
      <path
         id="path1312"
         d="m -59.468577,149.69063 c -0.577716,-0.8248 -0.608575,-9.88974 -0.03633,-10.67233 0.367047,-0.50196 0.927422,-0.51359 24.759869,-0.51359 23.832446,0 24.392823,0.0116 24.7598691,0.51359 0.5722434,0.78259 0.5413851,9.84753 -0.03633,10.67233 l -0.411879,0.58804 h -24.31166 -24.31166 z m 49.197496,-5.36509 v -5.29166 h -24.473958 -24.473958 l -0.0722,5.01893 c -0.03971,2.76042 -0.01344,5.17206 0.05837,5.3592 0.105359,0.27456 4.844542,0.32721 24.546155,0.27273 l 24.415587,-0.0675 z"
         style="fill:#d9d9d9;stroke-width:0.264583" />
      <path
         id="path1310"
         d="m -59.351288,149.7495 c -0.490631,-0.49063 -0.529167,-0.88194 -0.529167,-5.37339 0,-3.76608 0.08358,-4.95852 0.375547,-5.35781 0.367047,-0.50196 0.927422,-0.51359 24.759869,-0.51359 24.078152,0 24.389212,0.007 24.7736671,0.52917 0.3174524,0.43145 0.3745838,1.44926 0.3094011,5.51191 -0.073409,4.57549 -0.1219227,5.01341 -0.5935342,5.35782 -0.434316,0.31717 -4.222134,0.37506 -24.540104,0.37506 -23.673735,0 -24.034282,-0.008 -24.555679,-0.52917 z m 49.080207,-5.42396 v -5.29166 h -24.473958 -24.473958 l -0.0722,5.01893 c -0.03971,2.76042 -0.01344,5.17206 0.05837,5.3592 0.105359,0.27456 4.844542,0.32721 24.546155,0.27273 l 24.415587,-0.0675 z"
         style="fill:#d4d4d4;stroke-width:0.264583" />
    </g>
  </g>
</svg>
